<svg xmlns="http://www.w3.org/2000/svg" viewBox="0 0 500 500"><g id="freepik--Device--inject-7"><path d="M243.47,62h-169a17.26,17.26,0,0,0-17.1,17.42v348a17.27,17.27,0,0,0,17.1,17.42H243.47a17.28,17.28,0,0,0,17.12-17.42v-348A17.27,17.27,0,0,0,243.47,62Zm6.43,354.67c0,9.16-6.86,16.57-15.32,16.57H83.34c-8.48,0-15.34-7.41-15.34-16.57V92.6C68,73.94,74.86,73,83.34,73h30.29c1.76,0,3.2,2,3.2,4.48v1.07c0,5.81,3.18,5.83,7.09,5.83H194c3.94,0,7.09,0,7.09-5.83V77.51c0-2.48,1.42-4.48,3.21-4.48h30.3C243,73,249.9,75.51,249.9,92.6Z" style="fill:#263238"></path><path d="M168.5,77.15H149.39A1.18,1.18,0,0,1,148.21,76h0a1.18,1.18,0,0,1,1.18-1.18H168.5A1.18,1.18,0,0,1,169.68,76h0A1.18,1.18,0,0,1,168.5,77.15Z" style="fill:#fff"></path><path d="M249.9,92.6V416.66c0,9.16-6.86,16.57-15.32,16.57H83.34c-8.48,0-15.34-7.41-15.34-16.57V92.6C68,73.94,74.86,73,83.34,73h30.29c1.76,0,3.2,2,3.2,4.48v1.07c0,5.81,3.18,5.83,7.09,5.83H194c3.94,0,7.09,0,7.09-5.83V77.51c0-2.48,1.42-4.48,3.21-4.48h30.3C243,73,249.9,75.51,249.9,92.6Z" style="fill:#fff"></path><path d="M249.89,92.6v34.18H68V92.6C68,73.94,74.85,73,83.33,73h30.3c1.76,0,3.2,2,3.2,4.48v1.07c0,5.81,3.18,5.83,7.08,5.83H194c3.94,0,7.1,0,7.1-5.83V77.51c0-2.48,1.42-4.48,3.21-4.48h30.29C243,73,249.89,75.51,249.89,92.6Z" style="fill:#92E3A9"></path><polygon points="86.41 118.84 81.04 113.81 86.41 108.77 87.25 109.66 82.82 113.81 87.25 117.96 86.41 118.84" style="fill:#fff"></polygon><path d="M236.87,111.73a1.06,1.06,0,1,1-1.06-1.06A1.06,1.06,0,0,1,236.87,111.73Z" style="fill:#fff"></path><path d="M236.87,115.49a1.06,1.06,0,1,1-1.06-1.06A1.06,1.06,0,0,1,236.87,115.49Z" style="fill:#fff"></path><path d="M236.87,119.25a1.06,1.06,0,1,1-1.06-1.06A1.06,1.06,0,0,1,236.87,119.25Z" style="fill:#fff"></path><g id="freepik--u5Zjqx--inject-7"><path d="M108.4,80.3l-.29.3-.17.16a4,4,0,0,0-5.64,0,1.29,1.29,0,0,0-.16-.17l-.29-.29h0l0,0,.37-.33a4.7,4.7,0,0,1,.85-.54,4.14,4.14,0,0,1,1.14-.38,5,5,0,0,1,.56-.08h.5l.39,0a4.77,4.77,0,0,1,1,.25,4.66,4.66,0,0,1,1.37.8l.31.28Z" style="fill:#fff"></path><path d="M103.23,81.68c-.16-.15-.31-.3-.46-.46a3.33,3.33,0,0,1,4.71,0l-.47.46a2.61,2.61,0,0,0-1.89-.78A2.65,2.65,0,0,0,103.23,81.68Z" style="fill:#fff"></path><path d="M106.55,82.14c-.15.16-.3.31-.46.46a1.34,1.34,0,0,0-1-.4,1.32,1.32,0,0,0-1,.41c-.15-.16-.3-.31-.46-.46A2,2,0,0,1,106.55,82.14Z" style="fill:#fff"></path><path d="M105.54,83a.42.42,0,0,1-.42.42.41.41,0,0,1-.41-.42.41.41,0,0,1,.41-.41A.41.41,0,0,1,105.54,83Z" style="fill:#fff"></path></g><path d="M79.86,81.19a1.21,1.21,0,1,1,1.2,1.2A1.21,1.21,0,0,1,79.86,81.19Z" style="fill:#fff"></path><path d="M83.66,81.19a1.21,1.21,0,1,1,1.2,1.2A1.21,1.21,0,0,1,83.66,81.19Z" style="fill:#fff"></path><path d="M87.45,81.19a1.21,1.21,0,1,1,1.21,1.2A1.21,1.21,0,0,1,87.45,81.19Z" style="fill:#fff"></path><path d="M91.25,81.19a1.21,1.21,0,1,1,1.21,1.2A1.21,1.21,0,0,1,91.25,81.19Z" style="fill:#fff"></path><path d="M95.05,81.19a1.21,1.21,0,1,1,1.2,1.2A1.21,1.21,0,0,1,95.05,81.19Z" style="fill:#fff"></path><path d="M236.25,83.82h-9.81V79.27h9.81Zm-9.31-.5h8.81V79.77h-8.81Z" style="fill:#fff"></path><rect x="227.25" y="80.05" width="6.33" height="3" style="fill:#fff"></rect><rect x="236.26" y="80.33" width="0.87" height="2.43" style="fill:#fff"></rect><polygon points="95.64 413.42 94.25 413.42 94.25 419.77 91.67 419.77 91.67 416.53 87.09 416.53 87.09 419.77 84.51 419.77 84.51 413.42 83.13 413.42 89.38 406.95 95.64 413.42" style="fill:#ebebeb"></polygon><rect x="219.7" y="406.95" width="15.08" height="2.15" style="fill:#ebebeb"></rect><rect x="219.7" y="412.28" width="15.08" height="2.15" style="fill:#ebebeb"></rect><rect x="219.7" y="417.61" width="15.08" height="2.15" style="fill:#ebebeb"></rect></g><g id="freepik--speech-bubbles-2--inject-7"><polygon points="94.61 276.05 192.33 276.05 192.33 235.2 94.61 235.2 94.61 235.2 94.61 276.05 94.61 276.05" style="fill:#92E3A9"></polygon><rect x="102.06" y="242.26" width="82.82" height="0.78" style="fill:#fff"></rect><rect x="102.06" y="246.45" width="58.91" height="0.78" style="fill:#fff"></rect><rect x="102.06" y="254.84" width="73.35" height="0.78" style="fill:#fff"></rect><rect x="102.06" y="259.03" width="82.82" height="0.78" style="fill:#fff"></rect><rect x="102.06" y="263.22" width="82.82" height="0.78" style="fill:#fff"></rect><rect x="102.06" y="267.41" width="50.92" height="0.78" style="fill:#fff"></rect><polygon points="192.33 247.25 192.33 235.2 206.87 235.2 192.33 247.25" style="fill:#92E3A9"></polygon><polygon points="94.61 381.89 192.33 381.89 192.33 353.04 94.61 353.04 94.61 353.04 94.61 381.89 94.61 381.89" style="fill:#92E3A9"></polygon><polygon points="192.33 365.09 192.33 353.04 206.87 353.04 192.33 365.09" style="fill:#92E3A9"></polygon><rect x="102.06" y="360.11" width="82.82" height="0.78" style="fill:#fff"></rect><rect x="102.06" y="364.3" width="58.91" height="0.78" style="fill:#fff"></rect><rect x="102.06" y="372.68" width="73.35" height="0.78" style="fill:#fff"></rect><rect x="131.08" y="147.45" width="97.72" height="34.46" style="fill:#dbdbdb"></rect><polygon points="131.08 159.5 131.08 147.45 116.53 147.45 131.08 159.5" style="fill:#dbdbdb"></polygon><rect x="138.68" y="153.81" width="63.57" height="0.78" style="fill:#fff"></rect><rect x="138.68" y="158.01" width="82.82" height="0.78" style="fill:#fff"></rect><rect x="138.68" y="162.2" width="82.82" height="0.78" style="fill:#fff"></rect><rect x="138.68" y="166.39" width="73.7" height="0.78" style="fill:#fff"></rect><rect x="138.68" y="170.58" width="82.82" height="0.78" style="fill:#fff"></rect><rect x="138.68" y="174.77" width="52.74" height="0.78" style="fill:#fff"></rect><rect x="131.08" y="187.49" width="97.72" height="25.56" style="fill:#dbdbdb"></rect><rect x="138.68" y="193.86" width="82.62" height="0.78" style="fill:#fff"></rect><rect x="138.68" y="198.05" width="62.27" height="0.78" style="fill:#fff"></rect><rect x="138.68" y="202.24" width="71.78" height="0.78" style="fill:#fff"></rect><rect x="138.68" y="206.43" width="47.97" height="0.78" style="fill:#fff"></rect><polygon points="131.08 199.54 131.08 187.49 116.53 187.49 131.08 199.54" style="fill:#dbdbdb"></polygon><rect x="131.08" y="296.31" width="97.72" height="36.03" style="fill:#dbdbdb"></rect><polygon points="131.08 308.36 131.08 296.31 116.53 296.31 131.08 308.36" style="fill:#dbdbdb"></polygon><rect x="139.82" y="315.12" width="76.42" height="0.78" style="fill:#fff"></rect><rect x="139.82" y="319.31" width="67.56" height="0.78" style="fill:#fff"></rect><rect x="139.82" y="306.74" width="70.14" height="0.78" style="fill:#fff"></rect><rect x="139.82" y="302.55" width="81.39" height="0.78" style="fill:#fff"></rect><rect x="139.82" y="323.5" width="71.11" height="0.78" style="fill:#fff"></rect></g><g id="freepik--robot-avatar--inject-7"><circle cx="222.13" cy="256.88" r="17.25" style="fill:#c7c7c7"></circle><path d="M227.07,262.46h0" style="fill:#ebebeb"></path><path d="M228.74,269.13a.2.2,0,0,1,0,.07s0,.07,0,.11h0c0,.21-.06.47-.09.77s-.09.84-.14,1.33-.09.86-.14,1.32l0,.25-.31.11a1.92,1.92,0,0,1-.31.11,17.31,17.31,0,0,1-8.44.68l-.12,0a15.76,15.76,0,0,1-2.58-.67,1.76,1.76,0,0,1-.3-.1L216,273l0-.26c0-.46-.1-.9-.14-1.31s-.09-.94-.14-1.32-.06-.58-.09-.79h0s0-.07,0-.1a.2.2,0,0,1,0-.07.49.49,0,0,1,0-.12.47.47,0,0,1,.06-.21.57.57,0,0,1,.33-.3,21.44,21.44,0,0,1,3.49-.86l.4-.06h0l.49-.06h0l.6-.06h.1c.39,0,.74-.05,1.06-.05h0c.33,0,.71,0,1.11.05h.09l.66.07h0l.53.07h0l.23,0a20.93,20.93,0,0,1,3.53.87.54.54,0,0,1,.34.32.37.37,0,0,1,.06.21A.34.34,0,0,1,228.74,269.13Z" style="fill:#92E3A9"></path><path d="M219.25,273.89l-.12,0-.07-2.56-.05-1.76,0-1.76.09,1.76.08,1.75Z" style="opacity:0.1"></path><path d="M218.43,269.07a.3.3,0,0,1-.19.1A.27.27,0,0,1,218,269a.26.26,0,0,1,.18-.3.26.26,0,0,1,.21,0,.25.25,0,0,0-.23-.09.39.39,0,0,0-.23.13.37.37,0,0,0-.06.27.33.33,0,0,0,.16.22.32.32,0,0,0,.48-.21Z" style="opacity:0.1"></path><path d="M218.36,271.28a.27.27,0,0,1-.28-.22.27.27,0,0,1,.18-.31.31.31,0,0,1,.21,0,.29.29,0,0,1,.13.19.33.33,0,0,0-.36-.27.39.39,0,0,0-.23.13.4.4,0,0,0-.06.27.36.36,0,0,0,.16.22.39.39,0,0,0,.26,0,.31.31,0,0,0,.23-.24l0,.07A.31.31,0,0,1,218.36,271.28Z" style="opacity:0.1"></path><path d="M218.44,273.51a.25.25,0,0,1-.28-.21.27.27,0,0,1,.17-.31.28.28,0,0,1,.22,0,.34.34,0,0,1,.13.18.33.33,0,0,0-.36-.26.32.32,0,0,0-.23.13.3.3,0,0,0-.06.26.35.35,0,0,0,.16.23.39.39,0,0,0,.26,0,.3.3,0,0,0,.22-.25s0,.05,0,.08A.26.26,0,0,1,218.44,273.51Z" style="opacity:0.1"></path><path d="M219.1,265.26a13.65,13.65,0,0,0,.5,3,4.73,4.73,0,0,0,2,.77,4.57,4.57,0,0,0,2.86-.62c.52-.4.84-3.23.69-3.36a7,7,0,0,0-2.94-.92C220.8,264.11,219.09,265,219.1,265.26Z" style="fill:#37474f"></path><path d="M219.53,268a9,9,0,0,0,1.15.49,3.87,3.87,0,0,0,1.21.23,6.28,6.28,0,0,0,1.23-.17,9.15,9.15,0,0,0,1.19-.37,8.15,8.15,0,0,1-1.18.39,5.8,5.8,0,0,1-1.24.18,3.63,3.63,0,0,1-1.22-.24A7.77,7.77,0,0,1,219.53,268Z" style="fill:#263238"></path><path d="M219.47,267.69a10.54,10.54,0,0,0,1.2.51,3.7,3.7,0,0,0,1.27.23,6.16,6.16,0,0,0,1.28-.17,12.72,12.72,0,0,0,1.24-.38,10.39,10.39,0,0,1-1.23.4,6.38,6.38,0,0,1-1.29.19,4,4,0,0,1-1.28-.25A9,9,0,0,1,219.47,267.69Z" style="fill:#263238"></path><path d="M219.43,267.39a9,9,0,0,0,1.24.52,3.67,3.67,0,0,0,1.31.25,6.65,6.65,0,0,0,1.33-.18,12,12,0,0,0,1.29-.4,9.71,9.71,0,0,1-1.29.42,6.56,6.56,0,0,1-1.33.19,3.74,3.74,0,0,1-1.32-.26A7.91,7.91,0,0,1,219.43,267.39Z" style="fill:#263238"></path><path d="M219.47,267.11a10.5,10.5,0,0,0,1.24.53,3.89,3.89,0,0,0,1.31.24,6,6,0,0,0,1.33-.18,12,12,0,0,0,1.29-.4,9.71,9.71,0,0,1-1.29.42,5.94,5.94,0,0,1-1.33.2,4,4,0,0,1-1.32-.26A8,8,0,0,1,219.47,267.11Z" style="fill:#263238"></path><path d="M219.42,266.79a10.35,10.35,0,0,0,1.29.54,3.91,3.91,0,0,0,1.36.26,7.06,7.06,0,0,0,1.37-.19,12,12,0,0,0,1.33-.41,8.84,8.84,0,0,1-1.32.43,6.47,6.47,0,0,1-1.38.2,4,4,0,0,1-1.37-.26A9.78,9.78,0,0,1,219.42,266.79Z" style="fill:#263238"></path><path d="M219.35,266.44a12.74,12.74,0,0,0,1.32.56,4.17,4.17,0,0,0,1.39.26,6.23,6.23,0,0,0,1.42-.2,11.36,11.36,0,0,0,1.37-.42,11,11,0,0,1-1.37.45,6.16,6.16,0,0,1-1.42.2,4,4,0,0,1-1.4-.27A9,9,0,0,1,219.35,266.44Z" style="fill:#263238"></path><path d="M219.29,266.1a11.78,11.78,0,0,0,1.37.59,4.28,4.28,0,0,0,1.45.27,6.6,6.6,0,0,0,1.47-.21,12.18,12.18,0,0,0,1.42-.43,11.21,11.21,0,0,1-1.42.46,7.24,7.24,0,0,1-1.47.21,4.3,4.3,0,0,1-1.46-.28A10.29,10.29,0,0,1,219.29,266.1Z" style="fill:#263238"></path><path d="M219.22,265.78a10.17,10.17,0,0,0,1.4.6,4.23,4.23,0,0,0,1.49.28,6.47,6.47,0,0,0,1.51-.21,12.92,12.92,0,0,0,1.46-.45,10.79,10.79,0,0,1-1.46.47,6.4,6.4,0,0,1-1.51.22,4.3,4.3,0,0,1-1.5-.29A8.66,8.66,0,0,1,219.22,265.78Z" style="fill:#263238"></path><path d="M234,265.71a10.77,10.77,0,0,1,1.46-.29,1.8,1.8,0,0,0,1.49-1.5l1-6.22a1.8,1.8,0,0,0-1.1-1.94l-2-.8Z" style="fill:#92E3A9"></path><g style="opacity:0.2"><path d="M234,265.71a10.77,10.77,0,0,1,1.46-.29,1.8,1.8,0,0,0,1.49-1.5l1-6.22a1.8,1.8,0,0,0-1.1-1.94l-2-.8Z"></path></g><path d="M210.51,265.5a9.66,9.66,0,0,0-1.47-.24,1.78,1.78,0,0,1-1.53-1.45l-1.18-6.18a1.79,1.79,0,0,1,1-2l1.95-.86Z" style="fill:#92E3A9"></path><g style="opacity:0.2"><path d="M210.51,265.5a9.66,9.66,0,0,0-1.47-.24,1.78,1.78,0,0,1-1.53-1.45l-1.18-6.18a1.79,1.79,0,0,1,1-2l1.95-.86Z"></path></g><path d="M234.09,267.23a137.11,137.11,0,0,0,1.64-20.14s-14.83-2.32-26.94-.14c0,0,.54,15.55,1.56,19.9C210.35,266.85,222.73,267.5,234.09,267.23Z" style="fill:#92E3A9"></path><path d="M221.55,246c0,1.75,0,3.51,0,5.27l.05,5.27.06-.07-6,.44-3,.23-3,.24,3-.18,3-.19,6-.41h.06v-.06l-.08-5.26Z" style="opacity:0.1"></path><path d="M222.62,246.94a.37.37,0,0,0-.24-.12.27.27,0,0,0-.23.09.27.27,0,0,1,.21,0,.28.28,0,0,1,.2.31.27.27,0,0,1-.28.23.27.27,0,0,1-.2-.09.31.31,0,0,1-.06-.23.34.34,0,0,0,.51.35.35.35,0,0,0,.09-.51Z" style="opacity:0.1"></path><path d="M222.64,249.26v0a.24.24,0,0,0-.06-.11.34.34,0,0,0-.24-.13.32.32,0,0,0-.31.18.34.34,0,0,1,.09-.08.26.26,0,0,1,.39.14s0,0,0,0v0a.17.17,0,0,1,0,.1.31.31,0,0,1-.18.21h-.07s0,0,0,0,0,0,0,0h0a.25.25,0,0,1-.14-.08.29.29,0,0,1-.06-.22.32.32,0,0,0,.11.3l0,0,0,0,.07,0a.34.34,0,0,0,.24,0h0l0,0a.34.34,0,0,0,.13-.2A.49.49,0,0,0,222.64,249.26Z" style="opacity:0.1"></path><path d="M222.05,251.42l0,0,0,0Zm-.05.28s0,0,0,0h0S222,251.72,222,251.7Zm.05-.28,0,0,0,0Zm0,0,0,0,0,0Zm.54,0s0,0,0,0h0l0,0a.34.34,0,0,0-.48,0,0,0,0,0,0,0,0s0,0,0,0l0,0,0,0h0a.26.26,0,0,1,.21,0l.09,0,0,0s0,0,0,0a.27.27,0,0,1,.07.22.42.42,0,0,1,0,.1s0,0,0,0l0,0a.24.24,0,0,1-.21.09.29.29,0,0,1-.2-.09h0l0,0v0s0,0,0,0,0,0,0,0v0s0,0,0,0a.3.3,0,0,0,.21.17.35.35,0,0,0,.26,0,.32.32,0,0,0,.11-.12v0s0,0,0,0,0-.05,0-.08A.31.31,0,0,0,222.59,251.43Zm-.56,0,0,0h0Zm0,0,0,0,0,0Zm0,0,0,0,0,0Z" style="opacity:0.1"></path><path d="M222.59,253.7a.27.27,0,0,0-.17-.11h-.2a.26.26,0,0,0-.14.13l0,0a.26.26,0,0,1,.21,0,.28.28,0,0,1,.2.27v0a.29.29,0,0,1-.29.23.3.3,0,0,1-.19-.1A.22.22,0,0,1,222,254a.31.31,0,0,0,.23.24.36.36,0,0,0,.27,0,.33.33,0,0,0,.15-.23v-.06A.32.32,0,0,0,222.59,253.7Z" style="opacity:0.1"></path><path d="M220.22,257.44l-.05-.07a.29.29,0,0,0,.07.12h0Zm0-.31v0s0,0,0,0l0-.06A.13.13,0,0,0,220.18,257.13Zm.63.05s0,0,0,0,0,0,0,0a.22.22,0,0,0-.05-.08.37.37,0,0,0-.24-.12.3.3,0,0,0-.28.14l.05,0a.29.29,0,0,1,.22,0,.29.29,0,0,1,.16.13s0,0,0,0v0a.27.27,0,0,1-.11.31l0,0h-.05l0,0h0a0,0,0,0,1,0,0,0,0,0,0,1,0,0h0a.06.06,0,0,1,0,0h0l0,0-.06-.05-.05-.07a.29.29,0,0,0,.07.12l0,0,0,0a.35.35,0,0,0,.12.07.36.36,0,0,0,.27,0l0,0,0,0,0,0a.3.3,0,0,0,.08-.16A.26.26,0,0,0,220.81,257.18Z" style="opacity:0.1"></path><path d="M218,257.39s0,.05,0,.07,0,0,0,0,0,0,0,0A.17.17,0,0,1,218,257.39Zm.6-.16a.25.25,0,0,0-.1-.08l0,0a.11.11,0,0,0-.08,0h-.08l-.08,0h0l0,0a.33.33,0,0,0-.13.13.34.34,0,0,1,.09-.08.29.29,0,0,1,.22,0,.27.27,0,0,1,.19.3v0a.26.26,0,0,1-.27.2.32.32,0,0,1-.2-.1.18.18,0,0,1,0-.1v0h0a0,0,0,0,0,0,0,.32.32,0,0,0,.25.26.35.35,0,0,0,.26,0,.28.28,0,0,0,.15-.22h0v0A.33.33,0,0,0,218.56,257.23Z" style="opacity:0.1"></path><path d="M215.83,257.78a.56.56,0,0,1-.05-.08.18.18,0,0,0,0,.1h0Zm0-.3a.19.19,0,0,0,0,.08.11.11,0,0,1,0-.08Zm0,0a.19.19,0,0,0,0,.08.11.11,0,0,1,0-.08Zm0,0a.19.19,0,0,0,0,.08.11.11,0,0,1,0-.08Zm.62,0v0a0,0,0,0,0,0,0l0-.05a.33.33,0,0,0-.24-.12.32.32,0,0,0-.3.16.27.27,0,0,1,.08-.07.26.26,0,0,1,.21,0,.28.28,0,0,1,.15.11,0,0,0,0,1,0,0v0a.23.23,0,0,1,0,.16.24.24,0,0,1-.09.15l0,0,0,0h0a.28.28,0,0,1-.13,0,.1.1,0,0,1-.08,0h0s0,0,0,0h0l0,0,0,0a.56.56,0,0,1-.05-.08.18.18,0,0,0,0,.1v0l0,0a.34.34,0,0,0,.17.11.31.31,0,0,0,.26-.05l.05,0h0a0,0,0,0,1,0,0l0,0a.27.27,0,0,0,.07-.14A.28.28,0,0,0,216.41,257.49Zm-.62,0a.19.19,0,0,0,0,.08.11.11,0,0,1,0-.08Zm0,0a.19.19,0,0,0,0,.08.11.11,0,0,1,0-.08Zm0,0a.19.19,0,0,0,0,.08.11.11,0,0,1,0-.08Z" style="opacity:0.1"></path><path d="M214.17,257.57a.25.25,0,0,0-.16-.11h-.17a.29.29,0,0,0-.14.08.29.29,0,0,1,.42.24s0,0,0,0v0a.26.26,0,0,1-.28.23.25.25,0,0,1-.19-.09.22.22,0,0,1,0-.08.31.31,0,0,0,.23.24.36.36,0,0,0,.27,0,.33.33,0,0,0,.15-.24h0v-.05A.34.34,0,0,0,214.17,257.57Z" style="opacity:0.1"></path><path d="M212,257.8v0s0,0,0,0l0,0a.35.35,0,0,0-.25-.1.32.32,0,0,0-.26.13v0l0,0a.33.33,0,0,0,0,.14.35.35,0,0,1,.06-.14s0,0,0,0,0,0,0,0l0,0a.29.29,0,0,1,.22,0,.21.21,0,0,1,.13.07l0,0s0,0,0,0a.28.28,0,0,1,0,.32v0l0,0a.24.24,0,0,1-.17.07.21.21,0,0,1-.15-.08h0v0h0s0,0,0,0a.33.33,0,0,0,.47.08.13.13,0,0,0,.06-.07l0,0s0,0,0,0a.2.2,0,0,0,0-.13A.25.25,0,0,0,212,257.8Zm-.58.31s0,0,0,0a0,0,0,0,1,0,0Z" style="opacity:0.1"></path><path d="M222.07,256.38a.22.22,0,0,1,0-.08.24.24,0,0,0,.07.13h0A.18.18,0,0,1,222.07,256.38Zm.59-.29v0a.22.22,0,0,0-.05-.08.33.33,0,0,0-.24-.12.33.33,0,0,0-.31.17.3.3,0,0,1,.08-.08.29.29,0,0,1,.22,0,.29.29,0,0,1,.17.14v0s0,0,0,0a.24.24,0,0,1,0,.12.26.26,0,0,1-.13.19l0,0-.1,0h0l-.08,0h0l0,0a.18.18,0,0,1-.07-.05.22.22,0,0,1,0-.08.24.24,0,0,0,.07.13l0,0,0,0a.24.24,0,0,0,.12.07.36.36,0,0,0,.27,0l0,0s0,0,0,0l0,0a.3.3,0,0,0,.08-.17.33.33,0,0,0,0-.14S222.66,256.1,222.66,256.09Z" style="opacity:0.1"></path><path d="M232.48,265.92a109.6,109.6,0,0,0,1.42-17.09s-14.81-1.89-23.34-.12c0,0,.48,13.11,1.35,16.88C211.91,265.59,222.64,266.15,232.48,265.92Z" style="fill:#37474f"></path><path d="M210.57,249.13c.09,2.27.56,13.09,1.34,16.46,0,0,10.32.54,20,.34a111.07,111.07,0,0,0,1.34-16.58S219.05,247.53,210.57,249.13Z" style="fill:#263238"></path><line x1="222.18" y1="248.51" x2="218.55" y2="248.48" style="fill:none"></line><path d="M223.15,248.55l-5.44-.06h.84c1.22,0,2.44,0,3.63,0Z" style="fill:#455a64"></path><line x1="229.47" y1="248.95" x2="212.98" y2="248.78" style="fill:none"></line><path d="M229.73,249l-16.92-.18.17,0,.19,0,16,.17h0l.28,0Z" style="fill:#455a64"></path><line x1="233.25" y1="249.36" x2="210.65" y2="249.11" style="fill:none"></line><path d="M233.25,249.35v0l-22.68-.25h0l.08,0,.12,0,22.36.24h0Z" style="fill:#455a64"></path><line x1="233.25" y1="249.72" x2="210.59" y2="249.47" style="fill:none"></line><path d="M233.25,249.69v.05l-22.66-.25v0Z" style="fill:#455a64"></path><line x1="233.24" y1="250.08" x2="210.6" y2="249.83" style="fill:none"></line><path d="M233.24,250.05v0l-22.64-.25v0Z" style="fill:#455a64"></path><line x1="233.23" y1="250.44" x2="210.62" y2="250.19" style="fill:none"></line><path d="M233.23,250.41v.05l-22.61-.24v-.05Z" style="fill:#455a64"></path><line x1="233.22" y1="250.8" x2="210.64" y2="250.55" style="fill:none"></line><path d="M233.22,250.78v0l-22.58-.24v0a0,0,0,0,1,0,0Z" style="fill:#455a64"></path><line x1="233.21" y1="251.16" x2="210.65" y2="250.92" style="fill:none"></line><path d="M233.21,251.14v0l-22.56-.24v-.05Z" style="fill:#455a64"></path><line x1="233.2" y1="251.52" x2="210.67" y2="251.28" style="fill:none"></line><path d="M233.2,251.5v0l-22.53-.24v-.05Z" style="fill:#455a64"></path><line x1="233.19" y1="251.88" x2="210.69" y2="251.64" style="fill:none"></line><path d="M233.19,251.86v0l-22.5-.24v0Z" style="fill:#455a64"></path><line x1="233.18" y1="252.24" x2="210.7" y2="252" style="fill:none"></line><path d="M233.18,252.22v0L210.71,252v0Z" style="fill:#455a64"></path><line x1="233.17" y1="252.6" x2="210.72" y2="252.36" style="fill:none"></line><path d="M233.17,252.58v0s0,0,0,0l-22.44-.24v0Z" style="fill:#455a64"></path><line x1="233.15" y1="252.96" x2="210.74" y2="252.72" style="fill:none"></line><path d="M233.15,252.94v0l-22.41-.24v0Z" style="fill:#455a64"></path><line x1="233.14" y1="253.32" x2="210.76" y2="253.08" style="fill:none"></line><path d="M233.14,253.3v0l-22.38-.24v0Z" style="fill:#455a64"></path><line x1="233.12" y1="253.68" x2="210.78" y2="253.44" style="fill:none"></line><path d="M233.12,253.66v0l-22.34-.24v0Z" style="fill:#455a64"></path><line x1="233.1" y1="254.04" x2="210.8" y2="253.8" style="fill:none"></line><path d="M233.1,254v0l-22.3-.24v0Z" style="fill:#455a64"></path><line x1="233.08" y1="254.4" x2="210.82" y2="254.16" style="fill:none"></line><path d="M233.08,254.38v0l-22.26-.24v0Z" style="fill:#455a64"></path><line x1="233.06" y1="254.76" x2="210.84" y2="254.52" style="fill:none"></line><path d="M233.07,254.74s0,0,0,0v0l-22.22-.24v0s0,0,0,0Z" style="fill:#455a64"></path><line x1="233.04" y1="255.12" x2="210.86" y2="254.89" style="fill:none"></line><path d="M233.05,255.1v0l-22.18-.23v0Z" style="fill:#455a64"></path><line x1="233.02" y1="255.48" x2="210.88" y2="255.25" style="fill:none"></line><path d="M233,255.46v0l-22.14-.23v-.05Z" style="fill:#455a64"></path><line x1="233" y1="255.84" x2="210.9" y2="255.61" style="fill:none"></line><path d="M233,255.82v.05l-22.1-.24v0Z" style="fill:#455a64"></path><line x1="232.98" y1="256.2" x2="210.92" y2="255.97" style="fill:none"></line><path d="M233,256.18v.05L210.92,256v0Z" style="fill:#455a64"></path><line x1="232.96" y1="256.56" x2="210.94" y2="256.33" style="fill:none"></line><path d="M233,256.54v0a0,0,0,0,0,0,0l-22-.24v0Z" style="fill:#455a64"></path><line x1="232.93" y1="256.93" x2="210.97" y2="256.69" style="fill:none"></line><path d="M232.93,256.9V257l-22-.24v0Z" style="fill:#455a64"></path><line x1="232.9" y1="257.29" x2="210.99" y2="257.05" style="fill:none"></line><path d="M232.9,257.26v.05L211,257.07v0Z" style="fill:#455a64"></path><line x1="232.88" y1="257.65" x2="211.02" y2="257.41" style="fill:none"></line><path d="M232.88,257.62v0s0,0,0,0L211,257.43v0Z" style="fill:#455a64"></path><line x1="232.85" y1="258.01" x2="211.04" y2="257.77" style="fill:none"></line><path d="M232.85,258v0l-21.8-.24v0Z" style="fill:#455a64"></path><line x1="232.82" y1="258.37" x2="211.07" y2="258.13" style="fill:none"></line><path d="M232.82,258.34v.05l-21.75-.24v0Z" style="fill:#455a64"></path><line x1="232.79" y1="258.73" x2="211.09" y2="258.49" style="fill:none"></line><path d="M232.79,258.7v.05l-21.7-.24v0Z" style="fill:#455a64"></path><line x1="232.76" y1="259.09" x2="211.12" y2="258.85" style="fill:none"></line><path d="M232.76,259.06v0a0,0,0,0,1,0,0l-21.63-.23v-.05Z" style="fill:#455a64"></path><line x1="232.72" y1="259.45" x2="211.15" y2="259.22" style="fill:none"></line><path d="M232.73,259.43v0l-21.57-.23v0a0,0,0,0,0,0,0Z" style="fill:#455a64"></path><line x1="232.69" y1="259.81" x2="211.18" y2="259.58" style="fill:none"></line><path d="M232.69,259.79v0l-21.51-.23v-.05Z" style="fill:#455a64"></path><line x1="232.66" y1="260.17" x2="211.21" y2="259.94" style="fill:none"></line><path d="M232.66,260.15v0L211.21,260v0Z" style="fill:#455a64"></path><line x1="232.62" y1="260.53" x2="211.24" y2="260.3" style="fill:none"></line><path d="M232.62,260.51v0l-21.38-.23v0Z" style="fill:#455a64"></path><line x1="232.58" y1="260.89" x2="211.27" y2="260.66" style="fill:none"></line><path d="M232.59,260.87v0l-21.31-.23v0Z" style="fill:#455a64"></path><line x1="232.54" y1="261.25" x2="211.3" y2="261.02" style="fill:none"></line><path d="M232.55,261.23v0L211.3,261v0Z" style="fill:#455a64"></path><line x1="232.51" y1="261.61" x2="211.33" y2="261.38" style="fill:none"></line><path d="M232.51,261.59v0l-21.16-.23v0Z" style="fill:#455a64"></path><line x1="232.46" y1="261.97" x2="211.37" y2="261.74" style="fill:none"></line><path d="M232.47,262v0l-21.09-.23v0Z" style="fill:#455a64"></path><line x1="232.42" y1="262.33" x2="211.41" y2="262.1" style="fill:none"></line><path d="M232.42,262.31v0l-21-.23v0Z" style="fill:#455a64"></path><line x1="232.38" y1="262.69" x2="211.45" y2="262.46" style="fill:none"></line><path d="M232.38,262.67v0l-20.92-.22v0s0,0,0,0Z" style="fill:#455a64"></path><line x1="232.33" y1="263.05" x2="211.49" y2="262.83" style="fill:none"></line><path d="M232.34,263v0l-20.84-.22v0a0,0,0,0,1,0,0Z" style="fill:#455a64"></path><line x1="232.29" y1="263.41" x2="211.53" y2="263.19" style="fill:none"></line><path d="M232.29,263.39v0l-20.75-.22v0Z" style="fill:#455a64"></path><line x1="232.24" y1="263.77" x2="211.57" y2="263.55" style="fill:none"></line><path d="M232.24,263.75v0l-20.66-.22v-.05Z" style="fill:#455a64"></path><line x1="232.19" y1="264.13" x2="211.62" y2="263.91" style="fill:none"></line><path d="M232.19,264.11v0l-20.56-.22v0Z" style="fill:#455a64"></path><line x1="232.14" y1="264.49" x2="211.67" y2="264.27" style="fill:none"></line><path d="M232.14,264.47v0l-20.45-.22s0,0,0,0v0Z" style="fill:#455a64"></path><line x1="232.08" y1="264.85" x2="211.73" y2="264.63" style="fill:none"></line><path d="M232.09,264.83a0,0,0,0,0,0,0v0l-20.35-.22v0Z" style="fill:#455a64"></path><line x1="232.03" y1="265.21" x2="211.79" y2="264.99" style="fill:none"></line><path d="M232,265.19v0s0,0,0,0L211.8,265v0Z" style="fill:#455a64"></path><line x1="231.97" y1="265.57" x2="211.86" y2="265.35" style="fill:none"></line><path d="M232,265.55v0s0,0,0,0l-20.09-.21v-.05Z" style="fill:#455a64"></path><polyline points="215.82 265.76 215.83 265.76 231.91 265.93" style="fill:none"></polyline><path d="M231.91,265.91v0h0l-.62,0-14.52-.16-.94,0h0l-.81,0Z" style="fill:#455a64"></path><path d="M220.69,259.19a1.89,1.89,0,0,0,.31,1.16,1.47,1.47,0,0,0,.49.43,1.57,1.57,0,0,0,.63.15,1.25,1.25,0,0,0,.65-.16,1.35,1.35,0,0,0,.46-.46,2.06,2.06,0,0,0,.25-1.18,3,3,0,0,1-.48,1,1,1,0,0,1-.87.43,1.22,1.22,0,0,1-.91-.4A2.55,2.55,0,0,1,220.69,259.19Z" style="fill:#92E3A9"></path><path d="M228.22,258.59c1.12,0,1.08,2.22,0,2.23S227.29,258.61,228.22,258.59Z" style="fill:#92E3A9"></path><path d="M215.59,258.44c1.12,0,1.07,2.22,0,2.24S214.65,258.46,215.59,258.44Z" style="fill:#92E3A9"></path><path d="M212.23,258.61a71.84,71.84,0,0,1-.56-8.67,34.5,34.5,0,0,1,8.93-.74c-1.45.13-2.9.26-4.34.45a40.05,40.05,0,0,0-4.27.73l.18-.24c0,2.82.08,5.64.06,8.47Z" style="fill:#455a64"></path><path d="M217.26,271.42a2.87,2.87,0,0,1-.66,1.39,1,1,0,0,1-.35.29L216,273c-.34-.13-.67-.27-1-.42a3.39,3.39,0,0,1-.24-2.17,3.12,3.12,0,0,1,.48-1.17,1.39,1.39,0,0,1,.4-.43.86.86,0,0,1,.84-.14C217.14,268.94,217.51,270.18,217.26,271.42Z" style="fill:#37474f"></path><path d="M214.74,270.4c-.21,1.05.1,2.09.69,2.33h0c.59.21,1.22-.44,1.42-1.47a2.39,2.39,0,0,0-.5-2.22l-.2-.11C215.59,268.7,214.94,269.36,214.74,270.4Z" style="fill:#455a64"></path><path d="M215,270.53a2.37,2.37,0,0,0,.5,2.21c.59.21,1.22-.44,1.42-1.47a2.39,2.39,0,0,0-.5-2.22C215.79,268.85,215.16,269.5,215,270.53Z" style="fill:#263238"></path><path d="M215.49,270.05l.65.2a1,1,0,0,1,.11.68c-.05.34-.22.57-.28.55l-.66-.2Z" style="fill:#37474f"></path><path d="M215.49,270.05c-.12,0-.25.22-.3.56s0,.64.12.67.25-.21.3-.55S215.6,270.09,215.49,270.05Z" style="fill:#455a64"></path><path d="M216.6,272.81a.76.76,0,0,1,0,.15,2,2,0,0,1,0,.24,1.76,1.76,0,0,1-.3-.1L216,273c-.34-.13-.67-.27-1-.42a15.8,15.8,0,0,1-1.63-.86,7.43,7.43,0,0,1,.59-1,4.9,4.9,0,0,1,1.28-1.43.51.51,0,0,1,.15-.07.57.57,0,0,1,.18,0,.33.33,0,0,1,.22,0,.56.56,0,0,1,.29.16,5.76,5.76,0,0,1,.59,2.71A4,4,0,0,1,216.6,272.81Z" style="fill:#92E3A9"></path><path d="M229.29,272.58c-.32.15-.65.28-1,.41l-.31.11a1.29,1.29,0,0,1-.37-.3,3,3,0,0,1-.64-1.38c-.25-1.24.12-2.48.83-2.76a.84.84,0,0,1,.85.16,1.29,1.29,0,0,1,.39.41,3.12,3.12,0,0,1,.48,1.17A3.36,3.36,0,0,1,229.29,272.58Z" style="fill:#37474f"></path><path d="M229.51,270.4c.21,1.05-.1,2.09-.69,2.33h0c-.58.21-1.21-.44-1.41-1.47a2.39,2.39,0,0,1,.5-2.22l.19-.11C228.66,268.7,229.31,269.36,229.51,270.4Z" style="fill:#455a64"></path><path d="M229.29,270.53a2.34,2.34,0,0,1-.51,2.21c-.58.21-1.21-.44-1.41-1.47a2.39,2.39,0,0,1,.5-2.22C228.46,268.85,229.09,269.5,229.29,270.53Z" style="fill:#263238"></path><path d="M228.76,270.05l-.65.2a1,1,0,0,0-.11.68c.05.34.22.57.28.55l.66-.2Z" style="fill:#37474f"></path><path d="M228.76,270.05c.12,0,.25.22.3.56s0,.64-.12.67-.25-.21-.3-.55S228.65,270.09,228.76,270.05Z" style="fill:#455a64"></path><path d="M230.93,271.71a14.27,14.27,0,0,1-1.64.87c-.32.15-.65.28-1,.41l-.31.11a1.92,1.92,0,0,1-.31.11c0-.09,0-.17,0-.25a.78.78,0,0,1,0-.16,6.75,6.75,0,0,1,0-.79h0a5.73,5.73,0,0,1,.6-2.69.56.56,0,0,1,.29-.16.37.37,0,0,1,.23,0l.16,0a.56.56,0,0,1,.16.07,4.77,4.77,0,0,1,1.28,1.43A7.43,7.43,0,0,1,230.93,271.71Z" style="fill:#92E3A9"></path><circle cx="222.13" cy="372.68" r="17.25" style="fill:#c7c7c7"></circle><path d="M227.07,378.27h0" style="fill:#ebebeb"></path><path d="M228.74,384.93a.2.2,0,0,1,0,.07s0,.07,0,.11h0c0,.21-.06.47-.09.77s-.09.84-.14,1.33-.09.86-.14,1.32l0,.25-.31.11a1.92,1.92,0,0,1-.31.11,17.31,17.31,0,0,1-8.44.68l-.12,0a15.76,15.76,0,0,1-2.58-.67,1.76,1.76,0,0,1-.3-.1l-.3-.11,0-.26c0-.46-.1-.9-.14-1.31s-.09-.94-.14-1.32-.06-.58-.09-.79h0s0-.07,0-.1a.2.2,0,0,1,0-.07.49.49,0,0,1,0-.12.47.47,0,0,1,.06-.21.57.57,0,0,1,.33-.3,21.44,21.44,0,0,1,3.49-.86l.4-.06h0l.49-.06h0l.6-.06h.1c.39,0,.74-.05,1.06-.05h0c.33,0,.71,0,1.11.05h.09l.66.07h0l.53.07h0l.23,0a20.93,20.93,0,0,1,3.53.87.54.54,0,0,1,.34.32.37.37,0,0,1,.06.21A.34.34,0,0,1,228.74,384.93Z" style="fill:#92E3A9"></path><path d="M219.25,389.69l-.12,0-.07-2.56-.05-1.76,0-1.76.09,1.76.08,1.75Z" style="opacity:0.1"></path><path d="M218.43,384.87a.3.3,0,0,1-.19.1.27.27,0,0,1-.28-.22.26.26,0,0,1,.18-.3.26.26,0,0,1,.21,0,.25.25,0,0,0-.23-.09.39.39,0,0,0-.23.13.37.37,0,0,0-.06.27.33.33,0,0,0,.16.22.32.32,0,0,0,.48-.21Z" style="opacity:0.1"></path><path d="M218.36,387.08a.27.27,0,0,1-.28-.22.27.27,0,0,1,.18-.31.31.31,0,0,1,.21,0,.29.29,0,0,1,.13.19.33.33,0,0,0-.36-.27.39.39,0,0,0-.23.13.4.4,0,0,0-.06.27.36.36,0,0,0,.16.22.39.39,0,0,0,.26,0,.31.31,0,0,0,.23-.24l0,.07A.31.31,0,0,1,218.36,387.08Z" style="opacity:0.1"></path><path d="M218.44,389.31a.25.25,0,0,1-.28-.21.27.27,0,0,1,.17-.31.28.28,0,0,1,.22,0,.34.34,0,0,1,.13.18.33.33,0,0,0-.36-.26.32.32,0,0,0-.23.13.3.3,0,0,0-.06.26.35.35,0,0,0,.16.23.39.39,0,0,0,.26,0,.3.3,0,0,0,.22-.25s0,.05,0,.08A.26.26,0,0,1,218.44,389.31Z" style="opacity:0.1"></path><path d="M219.1,381.06a13.55,13.55,0,0,0,.5,3,4.72,4.72,0,0,0,2,.78,4.57,4.57,0,0,0,2.86-.63c.52-.4.84-3.23.69-3.36a7.16,7.16,0,0,0-2.94-.91C220.8,379.92,219.09,380.79,219.1,381.06Z" style="fill:#37474f"></path><path d="M219.53,383.82a9,9,0,0,0,1.15.48,3.37,3.37,0,0,0,1.21.23,5.61,5.61,0,0,0,1.23-.17,11,11,0,0,0,1.19-.36,9.55,9.55,0,0,1-1.18.38,5.23,5.23,0,0,1-1.24.18,3.4,3.4,0,0,1-1.22-.24A6.8,6.8,0,0,1,219.53,383.82Z" style="fill:#263238"></path><path d="M219.47,383.49a9,9,0,0,0,1.2.51,3.71,3.71,0,0,0,1.27.24,6.17,6.17,0,0,0,1.28-.18,10.46,10.46,0,0,0,1.24-.38,8.83,8.83,0,0,1-1.23.4,6.38,6.38,0,0,1-1.29.19,3.74,3.74,0,0,1-1.28-.25A7.86,7.86,0,0,1,219.47,383.49Z" style="fill:#263238"></path><path d="M219.43,383.19a10.5,10.5,0,0,0,1.24.53A3.89,3.89,0,0,0,222,384a6,6,0,0,0,1.33-.18,12,12,0,0,0,1.29-.4,9.71,9.71,0,0,1-1.29.42,5.94,5.94,0,0,1-1.33.2,4,4,0,0,1-1.32-.26A8,8,0,0,1,219.43,383.19Z" style="fill:#263238"></path><path d="M219.47,382.91a9.06,9.06,0,0,0,1.24.53,3.9,3.9,0,0,0,1.31.25,6.66,6.66,0,0,0,1.33-.19,10,10,0,0,0,1.29-.39,8.41,8.41,0,0,1-1.29.41,5.94,5.94,0,0,1-1.33.2,4,4,0,0,1-1.32-.26A8,8,0,0,1,219.47,382.91Z" style="fill:#263238"></path><path d="M219.42,382.59a10.41,10.41,0,0,0,1.29.55,3.9,3.9,0,0,0,1.36.25,5.8,5.8,0,0,0,1.37-.19,10.22,10.22,0,0,0,1.33-.41,8.84,8.84,0,0,1-1.32.43,6.49,6.49,0,0,1-1.38.21,4.28,4.28,0,0,1-1.37-.27A7.69,7.69,0,0,1,219.42,382.59Z" style="fill:#263238"></path><path d="M219.35,382.24a9.5,9.5,0,0,0,1.32.56,3.93,3.93,0,0,0,1.39.26,6.22,6.22,0,0,0,1.42-.19,13.5,13.5,0,0,0,1.37-.42,10.93,10.93,0,0,1-1.37.44,6.76,6.76,0,0,1-1.42.21,4.2,4.2,0,0,1-1.4-.28A8,8,0,0,1,219.35,382.24Z" style="fill:#263238"></path><path d="M219.29,381.91a11.71,11.71,0,0,0,1.37.58,4.28,4.28,0,0,0,1.45.27,6.59,6.59,0,0,0,1.47-.2,12.23,12.23,0,0,0,1.42-.44,9.81,9.81,0,0,1-1.42.46,6.07,6.07,0,0,1-1.47.21,4.07,4.07,0,0,1-1.46-.28A10.23,10.23,0,0,1,219.29,381.91Z" style="fill:#263238"></path><path d="M219.22,381.59a11.56,11.56,0,0,0,1.4.6,4.46,4.46,0,0,0,1.49.27,7,7,0,0,0,1.51-.2c.49-.13,1-.27,1.46-.45a12.41,12.41,0,0,1-1.46.47,7,7,0,0,1-1.51.22,4.81,4.81,0,0,1-1.5-.29A9.64,9.64,0,0,1,219.22,381.59Z" style="fill:#263238"></path><path d="M234,381.51a10.77,10.77,0,0,1,1.46-.29,1.79,1.79,0,0,0,1.49-1.49l1-6.22a1.81,1.81,0,0,0-1.1-1.95l-2-.79Z" style="fill:#92E3A9"></path><g style="opacity:0.2"><path d="M234,381.51a10.77,10.77,0,0,1,1.46-.29,1.79,1.79,0,0,0,1.49-1.49l1-6.22a1.81,1.81,0,0,0-1.1-1.95l-2-.79Z"></path></g><path d="M210.51,381.3a10.37,10.37,0,0,0-1.47-.23,1.79,1.79,0,0,1-1.53-1.45l-1.18-6.18a1.79,1.79,0,0,1,1-2l1.95-.87Z" style="fill:#92E3A9"></path><g style="opacity:0.2"><path d="M210.51,381.3a10.37,10.37,0,0,0-1.47-.23,1.79,1.79,0,0,1-1.53-1.45l-1.18-6.18a1.79,1.79,0,0,1,1-2l1.95-.87Z"></path></g><path d="M234.09,383a137.17,137.17,0,0,0,1.64-20.15s-14.83-2.31-26.94-.14c0,0,.54,15.55,1.56,19.91C210.35,382.66,222.73,383.31,234.09,383Z" style="fill:#92E3A9"></path><path d="M221.55,361.83c0,1.76,0,3.51,0,5.27l.05,5.27.06-.06-6,.43-3,.23-3,.25,3-.18,3-.19,6-.42h.06v-.06l-.08-5.27Z" style="opacity:0.1"></path><path d="M222.62,362.74a.37.37,0,0,0-.24-.12.27.27,0,0,0-.23.09.27.27,0,0,1,.21,0,.28.28,0,0,1,.2.31.27.27,0,0,1-.28.23.27.27,0,0,1-.2-.09.31.31,0,0,1-.06-.23.34.34,0,0,0,.51.35.35.35,0,0,0,.09-.51Z" style="opacity:0.1"></path><path d="M222.64,365.06v0a.24.24,0,0,0-.06-.11.34.34,0,0,0-.24-.13.32.32,0,0,0-.31.18.34.34,0,0,1,.09-.08.26.26,0,0,1,.39.14s0,0,0,0v0a.17.17,0,0,1,0,.1.31.31,0,0,1-.18.21h-.07s0,0,0,0,0,0,0,0h0a.25.25,0,0,1-.14-.08.29.29,0,0,1-.06-.22.32.32,0,0,0,.11.3l0,0,0,0,.07,0a.34.34,0,0,0,.24,0h0l0,0a.34.34,0,0,0,.13-.2A.49.49,0,0,0,222.64,365.06Z" style="opacity:0.1"></path><path d="M222.05,367.22l0,0,0,0Zm-.05.28s0,0,0,0h0Zm.05-.28,0,0,0,0Zm0,0,0,0,0,0Zm.54,0s0,0,0,0h0l0,0a.34.34,0,0,0-.48,0v0s0,0,0,0,0,0,0,0l0,0h0a.26.26,0,0,1,.21,0l.09,0,0,0,0,0a.27.27,0,0,1,.07.22.42.42,0,0,1,0,.1v0l0,0a.24.24,0,0,1-.21.09.29.29,0,0,1-.2-.09h0l0,0v0l0,0s0,0,0,0v0a.3.3,0,0,0,.21.17.35.35,0,0,0,.26,0,.32.32,0,0,0,.11-.12v0s0,0,0,0,0-.05,0-.08A.31.31,0,0,0,222.59,367.23Zm-.56,0,0,0h0Zm0,0,0,0,0,0Zm0,0,0,0,0,0Z" style="opacity:0.1"></path><path d="M222.59,369.5a.27.27,0,0,0-.17-.11h-.2a.26.26,0,0,0-.14.13l0,0a.26.26,0,0,1,.21,0,.28.28,0,0,1,.2.27v0a.29.29,0,0,1-.29.23.3.3,0,0,1-.19-.1.22.22,0,0,1-.05-.08.31.31,0,0,0,.23.24.36.36,0,0,0,.27,0,.33.33,0,0,0,.15-.23v-.06A.32.32,0,0,0,222.59,369.5Z" style="opacity:0.1"></path><path d="M220.22,373.24l-.05-.07a.29.29,0,0,0,.07.12h0Zm0-.31v0s0,0,0,0l0-.06A.13.13,0,0,0,220.18,372.93Zm.63.05s0,0,0,0v0a.22.22,0,0,0-.05-.08.37.37,0,0,0-.24-.12.3.3,0,0,0-.28.14l.05,0a.29.29,0,0,1,.22,0,.29.29,0,0,1,.16.13v0s0,0,0,0a.27.27,0,0,1-.11.31l0,0h-.05l0,0h-.06a.06.06,0,0,1,0,0h0l0,0-.06-.05-.05-.07a.29.29,0,0,0,.07.12l0,0,0,0a.35.35,0,0,0,.12.07.36.36,0,0,0,.27,0,0,0,0,0,0,0,0l0,0,0,0a.3.3,0,0,0,.08-.16A.26.26,0,0,0,220.81,373Z" style="opacity:0.1"></path><path d="M218,373.19s0,.05,0,.07v0s0,0,0,0A.17.17,0,0,1,218,373.19Zm.6-.16a.25.25,0,0,0-.1-.08l0,0a.11.11,0,0,0-.08,0h-.08l-.08,0h0l0,0a.33.33,0,0,0-.13.13.34.34,0,0,1,.09-.08.29.29,0,0,1,.22,0,.27.27,0,0,1,.19.3v0a.26.26,0,0,1-.27.2.32.32,0,0,1-.2-.1.18.18,0,0,1,0-.1v0h0a0,0,0,0,0,0,0,.32.32,0,0,0,.25.26.35.35,0,0,0,.26,0,.28.28,0,0,0,.15-.22h0v0A.33.33,0,0,0,218.56,373Z" style="opacity:0.1"></path><path d="M215.83,373.58a.56.56,0,0,1-.05-.08.18.18,0,0,0,0,.1h0Zm0-.3a.19.19,0,0,0,0,.08.11.11,0,0,1,0-.08Zm0,0a.19.19,0,0,0,0,.08.11.11,0,0,1,0-.08Zm0,0a.19.19,0,0,0,0,.08.11.11,0,0,1,0-.08Zm.62,0a0,0,0,0,0,0,0v0l0-.05a.33.33,0,0,0-.24-.12.32.32,0,0,0-.3.16.27.27,0,0,1,.08-.07.26.26,0,0,1,.21,0,.28.28,0,0,1,.15.11v0a0,0,0,0,1,0,0,.23.23,0,0,1,0,.16.24.24,0,0,1-.09.15l0,0,0,0h0a.28.28,0,0,1-.13,0,.1.1,0,0,1-.08,0h0s0,0,0,0h0l0,0,0,0a.56.56,0,0,1-.05-.08.18.18,0,0,0,0,.1v0l0,0a.34.34,0,0,0,.17.11.31.31,0,0,0,.26-.05.12.12,0,0,0,.05-.05h0v0l0,0a.27.27,0,0,0,.07-.14A.28.28,0,0,0,216.41,373.29Zm-.62,0a.19.19,0,0,0,0,.08.11.11,0,0,1,0-.08Zm0,0a.19.19,0,0,0,0,.08.11.11,0,0,1,0-.08Zm0,0a.19.19,0,0,0,0,.08.11.11,0,0,1,0-.08Z" style="opacity:0.1"></path><path d="M214.17,373.37a.25.25,0,0,0-.16-.11h-.17a.29.29,0,0,0-.14.08.29.29,0,0,1,.42.24v0a.26.26,0,0,1-.28.23.25.25,0,0,1-.19-.09.22.22,0,0,1,0-.08.31.31,0,0,0,.23.24.36.36,0,0,0,.27,0,.33.33,0,0,0,.15-.24h0v-.05A.34.34,0,0,0,214.17,373.37Z" style="opacity:0.1"></path><path d="M212,373.6s0,0,0,0,0,0,0,0l0,0a.35.35,0,0,0-.25-.1.32.32,0,0,0-.26.13v0l0,0a.33.33,0,0,0,0,.14.35.35,0,0,1,.06-.14l0,0s0,0,0,0l0,0a.29.29,0,0,1,.22,0,.21.21,0,0,1,.13.07l0,0s0,0,0,0a.28.28,0,0,1,0,.32v0l0,0a.24.24,0,0,1-.17.07.21.21,0,0,1-.15-.08h0v0h0s0,0,0,0a.33.33,0,0,0,.47.08A.13.13,0,0,0,212,374l0,0s0,0,0,0a.2.2,0,0,0,0-.13A.25.25,0,0,0,212,373.6Zm-.58.31s0,0,0,0a0,0,0,0,1,0,0Z" style="opacity:0.1"></path><path d="M222.07,372.18a.22.22,0,0,1,0-.08.24.24,0,0,0,.07.13h0A.18.18,0,0,1,222.07,372.18Zm.59-.29v0a.22.22,0,0,0-.05-.08.33.33,0,0,0-.24-.12.33.33,0,0,0-.31.17l.08-.08a.29.29,0,0,1,.22,0,.29.29,0,0,1,.17.14v.05a.24.24,0,0,1,0,.12.26.26,0,0,1-.13.19l0,0-.1,0h0l-.08,0h0l0,0a.18.18,0,0,1-.07-.05.22.22,0,0,1,0-.08.24.24,0,0,0,.07.13l0,0,0,0a.24.24,0,0,0,.12.07.36.36,0,0,0,.27,0,0,0,0,0,0,0,0l0,0,0,0a.3.3,0,0,0,.08-.17.33.33,0,0,0,0-.14Z" style="opacity:0.1"></path><path d="M232.48,381.72a109.6,109.6,0,0,0,1.42-17.09s-14.81-1.89-23.34-.12c0,0,.48,13.11,1.35,16.88C211.91,381.39,222.64,382,232.48,381.72Z" style="fill:#37474f"></path><path d="M210.57,364.93c.09,2.27.56,13.09,1.34,16.46,0,0,10.32.55,20,.35a111.45,111.45,0,0,0,1.34-16.59S219.05,363.34,210.57,364.93Z" style="fill:#263238"></path><line x1="222.18" y1="364.32" x2="218.55" y2="364.28" style="fill:none"></line><path d="M223.15,364.35l-5.44-.06h.84c1.22,0,2.44,0,3.63,0Z" style="fill:#455a64"></path><line x1="229.47" y1="364.76" x2="212.98" y2="364.58" style="fill:none"></line><path d="M229.73,364.78l-16.92-.18.17,0,.19,0,16,.17h0l.28,0Z" style="fill:#455a64"></path><line x1="233.25" y1="365.16" x2="210.65" y2="364.92" style="fill:none"></line><path d="M233.25,365.15v0l-22.68-.24h.08l.12,0,22.36.24h.12Z" style="fill:#455a64"></path><line x1="233.25" y1="365.52" x2="210.59" y2="365.28" style="fill:none"></line><path d="M233.25,365.5v0l-22.66-.24v-.05Z" style="fill:#455a64"></path><line x1="233.24" y1="365.88" x2="210.6" y2="365.64" style="fill:none"></line><path d="M233.24,365.86v0l-22.64-.24v0Z" style="fill:#455a64"></path><line x1="233.23" y1="366.24" x2="210.62" y2="366" style="fill:none"></line><path d="M233.23,366.22v0L210.62,366v0Z" style="fill:#455a64"></path><line x1="233.22" y1="366.6" x2="210.64" y2="366.36" style="fill:none"></line><path d="M233.22,366.58v0l-22.58-.24v0s0,0,0,0Z" style="fill:#455a64"></path><line x1="233.21" y1="366.96" x2="210.65" y2="366.72" style="fill:none"></line><path d="M233.21,366.94v0l-22.56-.24v0Z" style="fill:#455a64"></path><line x1="233.2" y1="367.32" x2="210.67" y2="367.08" style="fill:none"></line><path d="M233.2,367.3v0l-22.53-.24v0Z" style="fill:#455a64"></path><line x1="233.19" y1="367.68" x2="210.69" y2="367.44" style="fill:none"></line><path d="M233.19,367.66v0l-22.5-.24v0Z" style="fill:#455a64"></path><line x1="233.18" y1="368.04" x2="210.7" y2="367.8" style="fill:none"></line><path d="M233.18,368v0l-22.47-.24s0,0,0,0v0Z" style="fill:#455a64"></path><line x1="233.17" y1="368.4" x2="210.72" y2="368.16" style="fill:none"></line><path d="M233.17,368.38v0a0,0,0,0,1,0,0l-22.44-.24v-.05Z" style="fill:#455a64"></path><line x1="233.15" y1="368.76" x2="210.74" y2="368.52" style="fill:none"></line><path d="M233.15,368.74v.05l-22.41-.24v-.05Z" style="fill:#455a64"></path><line x1="233.14" y1="369.13" x2="210.76" y2="368.88" style="fill:none"></line><path d="M233.14,369.1v0l-22.38-.24v-.05Z" style="fill:#455a64"></path><line x1="233.12" y1="369.49" x2="210.78" y2="369.25" style="fill:none"></line><path d="M233.12,369.46v.05l-22.34-.24v0Z" style="fill:#455a64"></path><line x1="233.1" y1="369.85" x2="210.8" y2="369.61" style="fill:none"></line><path d="M233.1,369.82v.05l-22.3-.24v-.05Z" style="fill:#455a64"></path><line x1="233.08" y1="370.21" x2="210.82" y2="369.97" style="fill:none"></line><path d="M233.08,370.18v.05L210.82,370v-.05Z" style="fill:#455a64"></path><line x1="233.06" y1="370.57" x2="210.84" y2="370.33" style="fill:none"></line><path d="M233.07,370.55v0l-22.22-.24v0Z" style="fill:#455a64"></path><line x1="233.04" y1="370.93" x2="210.86" y2="370.69" style="fill:none"></line><path d="M233.05,370.91s0,0,0,0v0l-22.18-.24v0Z" style="fill:#455a64"></path><line x1="233.02" y1="371.29" x2="210.88" y2="371.05" style="fill:none"></line><path d="M233,371.27v0l-22.14-.24v0Z" style="fill:#455a64"></path><line x1="233" y1="371.65" x2="210.9" y2="371.41" style="fill:none"></line><path d="M233,371.63v0l-22.1-.24v0Z" style="fill:#455a64"></path><line x1="232.98" y1="372.01" x2="210.92" y2="371.77" style="fill:none"></line><path d="M233,372v0l-22.06-.24v0Z" style="fill:#455a64"></path><line x1="232.96" y1="372.37" x2="210.94" y2="372.13" style="fill:none"></line><path d="M233,372.35v0s0,0,0,0l-22-.24v0Z" style="fill:#455a64"></path><line x1="232.93" y1="372.73" x2="210.97" y2="372.49" style="fill:none"></line><path d="M232.93,372.71v0l-22-.24v0Z" style="fill:#455a64"></path><line x1="232.9" y1="373.09" x2="210.99" y2="372.85" style="fill:none"></line><path d="M232.9,373.07v0L211,372.88v-.05Z" style="fill:#455a64"></path><line x1="232.88" y1="373.45" x2="211.02" y2="373.21" style="fill:none"></line><path d="M232.88,373.43v0s0,0,0,0L211,373.24v-.05Z" style="fill:#455a64"></path><line x1="232.85" y1="373.81" x2="211.04" y2="373.57" style="fill:none"></line><path d="M232.85,373.79v0s0,0,0,0L211,373.6v-.05Z" style="fill:#455a64"></path><line x1="232.82" y1="374.17" x2="211.07" y2="373.94" style="fill:none"></line><path d="M232.82,374.15v0L211.07,374v0Z" style="fill:#455a64"></path><line x1="232.79" y1="374.53" x2="211.09" y2="374.3" style="fill:none"></line><path d="M232.79,374.51v0l-21.7-.23v-.05Z" style="fill:#455a64"></path><line x1="232.76" y1="374.89" x2="211.12" y2="374.66" style="fill:none"></line><path d="M232.76,374.87v0l-21.63-.23v0Z" style="fill:#455a64"></path><line x1="232.72" y1="375.25" x2="211.15" y2="375.02" style="fill:none"></line><path d="M232.73,375.23v0L211.15,375v0Z" style="fill:#455a64"></path><line x1="232.69" y1="375.61" x2="211.18" y2="375.38" style="fill:none"></line><path d="M232.69,375.59v0l-21.51-.23v0Z" style="fill:#455a64"></path><line x1="232.66" y1="375.97" x2="211.21" y2="375.74" style="fill:none"></line><path d="M232.66,376v0l-21.44-.23v0Z" style="fill:#455a64"></path><line x1="232.62" y1="376.33" x2="211.24" y2="376.1" style="fill:none"></line><path d="M232.62,376.31v0l-21.38-.23v0Z" style="fill:#455a64"></path><line x1="232.58" y1="376.69" x2="211.27" y2="376.46" style="fill:none"></line><path d="M232.59,376.67v0l-21.31-.23v0Z" style="fill:#455a64"></path><line x1="232.54" y1="377.05" x2="211.3" y2="376.82" style="fill:none"></line><path d="M232.55,377s0,0,0,0v0l-21.24-.22v-.05Z" style="fill:#455a64"></path><line x1="232.51" y1="377.41" x2="211.33" y2="377.18" style="fill:none"></line><path d="M232.51,377.39v0l-21.16-.22v0Z" style="fill:#455a64"></path><line x1="232.46" y1="377.77" x2="211.37" y2="377.55" style="fill:none"></line><path d="M232.47,377.75s0,0,0,0v0l-21.09-.23v-.05Z" style="fill:#455a64"></path><line x1="232.42" y1="378.13" x2="211.41" y2="377.91" style="fill:none"></line><path d="M232.42,378.11v0l-21-.22v-.05Z" style="fill:#455a64"></path><line x1="232.38" y1="378.49" x2="211.45" y2="378.27" style="fill:none"></line><path d="M232.38,378.47v0s0,0,0,0l-20.92-.22v0Z" style="fill:#455a64"></path><line x1="232.33" y1="378.85" x2="211.49" y2="378.63" style="fill:none"></line><path d="M232.34,378.83v0l-20.84-.22v0Z" style="fill:#455a64"></path><line x1="232.29" y1="379.21" x2="211.53" y2="378.99" style="fill:none"></line><path d="M232.29,379.19v.05L211.53,379v0Z" style="fill:#455a64"></path><line x1="232.24" y1="379.57" x2="211.57" y2="379.35" style="fill:none"></line><path d="M232.24,379.55v0l-20.66-.22s0,0,0,0v0Z" style="fill:#455a64"></path><line x1="232.19" y1="379.93" x2="211.62" y2="379.71" style="fill:none"></line><path d="M232.19,379.91v0l-20.56-.23s0,0,0,0v0Z" style="fill:#455a64"></path><line x1="232.14" y1="380.29" x2="211.67" y2="380.07" style="fill:none"></line><path d="M232.14,380.27v0l-20.45-.22v0Z" style="fill:#455a64"></path><line x1="232.08" y1="380.65" x2="211.73" y2="380.44" style="fill:none"></line><path d="M232.09,380.63v.05l-20.35-.22v0Z" style="fill:#455a64"></path><line x1="232.03" y1="381.01" x2="211.79" y2="380.8" style="fill:none"></line><path d="M232,381v0s0,0,0,0l-20.22-.22v0Z" style="fill:#455a64"></path><line x1="231.97" y1="381.37" x2="211.86" y2="381.16" style="fill:none"></line><path d="M232,381.35v0a0,0,0,0,1,0,0l-20.09-.22v0Z" style="fill:#455a64"></path><polyline points="215.82 381.56 215.83 381.56 231.91 381.73" style="fill:none"></polyline><path d="M231.91,381.71v0h-.62l-14.52-.16-.94,0h0l-.81,0Z" style="fill:#455a64"></path><path d="M220.69,375a1.87,1.87,0,0,0,.31,1.16,1.28,1.28,0,0,0,.49.43,1.57,1.57,0,0,0,.63.15,1.24,1.24,0,0,0,.65-.15,1.38,1.38,0,0,0,.46-.47,2,2,0,0,0,.25-1.17,3.19,3.19,0,0,1-.48,1,1.06,1.06,0,0,1-.87.43,1.23,1.23,0,0,1-.91-.41A2.48,2.48,0,0,1,220.69,375Z" style="fill:#92E3A9"></path><path d="M228.22,374.39c1.12,0,1.08,2.22,0,2.24S227.29,374.41,228.22,374.39Z" style="fill:#92E3A9"></path><path d="M215.59,374.24c1.12,0,1.07,2.22,0,2.24S214.65,374.26,215.59,374.24Z" style="fill:#92E3A9"></path><path d="M212.23,374.41a71.71,71.71,0,0,1-.56-8.67,34.5,34.5,0,0,1,8.93-.74c-1.45.13-2.9.27-4.34.45a42.76,42.76,0,0,0-4.27.74l.18-.25c0,2.83.08,5.65.06,8.47Z" style="fill:#455a64"></path><path d="M217.26,387.22a2.87,2.87,0,0,1-.66,1.39,1,1,0,0,1-.35.29l-.3-.11c-.34-.13-.67-.27-1-.42a3.39,3.39,0,0,1-.24-2.17,3.12,3.12,0,0,1,.48-1.17,1.39,1.39,0,0,1,.4-.43.86.86,0,0,1,.84-.14C217.14,384.74,217.51,386,217.26,387.22Z" style="fill:#37474f"></path><path d="M214.74,386.21c-.21,1.05.1,2.09.69,2.33h0c.59.2,1.22-.45,1.42-1.48a2.37,2.37,0,0,0-.5-2.21.56.56,0,0,0-.2-.11C215.59,384.51,214.94,385.16,214.74,386.21Z" style="fill:#455a64"></path><path d="M215,386.33a2.39,2.39,0,0,0,.5,2.22c.59.2,1.22-.45,1.42-1.48a2.37,2.37,0,0,0-.5-2.21C215.79,384.65,215.16,385.3,215,386.33Z" style="fill:#263238"></path><path d="M215.49,385.86l.65.19a1,1,0,0,1,.11.68c-.05.34-.22.57-.28.55l-.66-.19Z" style="fill:#37474f"></path><path d="M215.49,385.86c-.12,0-.25.21-.3.55s0,.64.12.68.25-.22.3-.56S215.6,385.89,215.49,385.86Z" style="fill:#455a64"></path><path d="M216.6,388.61a.76.76,0,0,1,0,.15,2,2,0,0,1,0,.24,1.76,1.76,0,0,1-.3-.1l-.3-.11c-.34-.13-.67-.27-1-.42a15.8,15.8,0,0,1-1.63-.86,7.43,7.43,0,0,1,.59-1.05,4.9,4.9,0,0,1,1.28-1.43.51.51,0,0,1,.15-.07l.18,0a.33.33,0,0,1,.22,0,.56.56,0,0,1,.29.16,5.76,5.76,0,0,1,.59,2.71A4,4,0,0,1,216.6,388.61Z" style="fill:#92E3A9"></path><path d="M229.29,388.38c-.32.15-.65.28-1,.41l-.31.11a1.29,1.29,0,0,1-.37-.3,3,3,0,0,1-.64-1.38c-.25-1.24.12-2.48.83-2.76a.84.84,0,0,1,.85.16,1.29,1.29,0,0,1,.39.41,3.12,3.12,0,0,1,.48,1.17A3.36,3.36,0,0,1,229.29,388.38Z" style="fill:#37474f"></path><path d="M229.51,386.21c.21,1.05-.1,2.09-.69,2.33h0c-.58.2-1.21-.45-1.41-1.48a2.37,2.37,0,0,1,.5-2.21.62.62,0,0,1,.19-.11C228.66,384.51,229.31,385.16,229.51,386.21Z" style="fill:#455a64"></path><path d="M229.29,386.33a2.36,2.36,0,0,1-.51,2.22c-.58.2-1.21-.45-1.41-1.48a2.37,2.37,0,0,1,.5-2.21C228.46,384.65,229.09,385.3,229.29,386.33Z" style="fill:#263238"></path><path d="M228.76,385.86l-.65.19a1,1,0,0,0-.11.68c.05.34.22.57.28.55l.66-.19Z" style="fill:#37474f"></path><path d="M228.76,385.86c.12,0,.25.21.3.55s0,.64-.12.68-.25-.22-.3-.56S228.65,385.89,228.76,385.86Z" style="fill:#455a64"></path><path d="M230.93,387.51a14.27,14.27,0,0,1-1.64.87c-.32.15-.65.28-1,.41l-.31.11a1.92,1.92,0,0,1-.31.11c0-.09,0-.17,0-.25a.78.78,0,0,1,0-.16,6.75,6.75,0,0,1,0-.79h0a5.73,5.73,0,0,1,.6-2.69.56.56,0,0,1,.29-.16.37.37,0,0,1,.23,0l.16,0a.56.56,0,0,1,.16.07,4.77,4.77,0,0,1,1.28,1.43A7.43,7.43,0,0,1,230.93,387.51Z" style="fill:#92E3A9"></path></g><g id="freepik--Character--inject-7"><circle cx="95.78" cy="165.81" r="17.25" transform="translate(-83.38 233.4) rotate(-80.66)" style="fill:#c7c7c7"></circle><circle cx="95.78" cy="317.92" r="17.25" transform="translate(-234.76 286.49) rotate(-67.8)" style="fill:#c7c7c7"></circle><path d="M111.74,172.18a17.19,17.19,0,0,1-7.95,8.73,16.91,16.91,0,0,1-5.26,1.76l-.29,0a16.8,16.8,0,0,1-2.47.18c-.35,0-.7,0-1,0l-.58-.05a17,17,0,0,1-6.38-1.89,17.25,17.25,0,0,1-9.11-13.09c1-2.09,3.65-1.8,4.62-4.12.06-.16.13-.35.21-.59A43.82,43.82,0,0,1,86,156.31l.05-.09a9.71,9.71,0,0,1,4.38-4.72,8.73,8.73,0,0,1,3.53-.69h0a11.4,11.4,0,0,1,1.35.08,12.29,12.29,0,0,1,2.33.49c.79.08,4.17-.43,6.54,2.59a12.11,12.11,0,0,1,1.67,3.7h0a62.77,62.77,0,0,1,1.52,6.8v0c.21,1.1.37,2,.5,2.65h0c0,.17.07.32.1.44.52,1.93,3.07,2.14,3.74,4.37A1.94,1.94,0,0,1,111.74,172.18Z" style="fill:#263238"></path><path d="M112.17,171a4.69,4.69,0,0,1-.2.6,3,3,0,0,0-.37-.76,8.68,8.68,0,0,0-1.85-1.83l-1-.84a2.75,2.75,0,0,1-.86-1,3.07,3.07,0,0,0,.94.89l1.1.75a8.71,8.71,0,0,1,2,1.81A3.11,3.11,0,0,1,112.17,171Z" style="fill:#263238"></path><path d="M86,156.22a22.21,22.21,0,0,0-.79,2.25l-.75,2.28a18.63,18.63,0,0,1-.91,2.23c0,.05,0,.09-.07.14a4.62,4.62,0,0,1-.58.93,1.69,1.69,0,0,1-.51.45l-.54.29a22.24,22.24,0,0,0-2.14,1,4.06,4.06,0,0,0-1.16,1q0-.32,0-.63a5.53,5.53,0,0,1,1-.74,22.89,22.89,0,0,1,2.16-1.08c.17-.09.35-.17.51-.27a.7.7,0,0,0,.21-.14.62.62,0,0,0,.18-.18,5,5,0,0,0,.61-1c.36-.69.65-1.43,1-2.16a40.64,40.64,0,0,1,1.85-4.3Z" style="fill:#263238"></path><path d="M103.79,180.91a16.91,16.91,0,0,1-5.26,1.76l-.29,0a16.8,16.8,0,0,1-2.47.18c-.35,0-.7,0-1,0l-.58-.05a17,17,0,0,1-6.38-1.89,27.68,27.68,0,0,1,1.88-3.06v0l.23-.31h0a10.14,10.14,0,0,1,3.36-3c2.27-1.09,4.53-.46,6.58,1.07a6.39,6.39,0,0,1,.63.74C101.19,177.26,102.42,178.94,103.79,180.91Z" style="fill:#92E3A9"></path><path d="M88.23,180.42a.29.29,0,0,0-.26.32.3.3,0,0,0,.59-.06A.3.3,0,0,0,88.23,180.42Zm3.92-.42a.31.31,0,0,0-.26.33.3.3,0,0,0,.33.26.3.3,0,0,0,.26-.32A.3.3,0,0,0,92.15,180Zm3.92-.41a.3.3,0,0,0,.06.59.3.3,0,1,0-.06-.59Zm3.92-.41a.29.29,0,0,0,.06.58.28.28,0,0,0,.26-.32A.29.29,0,0,0,100,179.18Zm-5.59,3.38a.3.3,0,0,0-.25.25l.58.05v0A.3.3,0,0,0,94.4,182.56Zm3.92-.41a.3.3,0,0,0-.26.32.3.3,0,0,0,.18.24l.29,0a.29.29,0,0,0,.12-.26A.3.3,0,0,0,98.32,182.15Zm-2.82-8a.29.29,0,0,0,.06.58.29.29,0,1,0-.06-.58Zm-5.59,3.38h0l-.23.31v0a.29.29,0,0,0,.32.24.29.29,0,0,0,.27-.32A.31.31,0,0,0,89.91,177.52Zm4-.41h0a.29.29,0,0,0-.26.32.29.29,0,0,0,.58,0v0A.29.29,0,0,0,93.88,177.11Zm3.87-.41a.29.29,0,0,0-.26.32.29.29,0,1,0,.58-.06A.28.28,0,0,0,97.75,176.7Z" style="fill:#fff"></path><path d="M93.56,176.68c.24.6,3.82,4.14,6.62,3.56.91-.19.1-5.21.1-5.21l0-.38.35-5.38-6.72-3-1-.38s0,1.48,0,3.32v.56c0,.28,0,.56,0,.84s0,.42,0,.64l0,.67A33.94,33.94,0,0,0,93.56,176.68Z" style="fill:#ad6359"></path><path d="M93,169.25a10.83,10.83,0,0,0,7.31,5.4l.35-5.38-6.72-3-1-.38S93,167.41,93,169.25Z" style="fill:#263238"></path><path d="M107.26,161.19c1,9.4-4.52,11.06-6.54,11.28-1.85.19-8.14.62-10.11-8.63s2.09-12.69,6.28-13.36S106.26,151.78,107.26,161.19Z" style="fill:#ad6359"></path><path d="M104.79,159.17c-.22,0-.43,0-.65-.07a1.13,1.13,0,0,1-.65-.19.33.33,0,0,1,0-.41.81.81,0,0,1,.79-.28,1.19,1.19,0,0,1,.81.34A.37.37,0,0,1,104.79,159.17Z" style="fill:#263238"></path><path d="M98.6,159.89a5,5,0,0,0,.62-.2,1.06,1.06,0,0,0,.59-.33.32.32,0,0,0,0-.4.84.84,0,0,0-.84-.11,1.18,1.18,0,0,0-.72.51A.36.36,0,0,0,98.6,159.89Z" style="fill:#263238"></path><path d="M100.1,162.13s0,0,0,.07c.11.63.12,1.38-.43,1.67,0,0,0,0,0,0C100.33,163.71,100.3,162.72,100.1,162.13Z" style="fill:#263238"></path><path d="M99.45,161.54c-1,.06-.85,2.13.11,2.08S100.31,161.49,99.45,161.54Z" style="fill:#263238"></path><path d="M99.05,161.69c-.17.13-.33.35-.55.4s-.46-.16-.64-.35c0,0,0,0,0,0,0,.4.22.79.65.81s.64-.36.7-.77C99.19,161.74,99.12,161.63,99.05,161.69Z" style="fill:#263238"></path><path d="M103.8,161.64s0,0,0,.06c0,.64.18,1.37.78,1.53,0,0,0,0,0,0C103.91,163.23,103.73,162.26,103.8,161.64Z" style="fill:#263238"></path><path d="M104.32,160.92c1-.16,1.28,1.9.33,2.06S103.46,161.06,104.32,160.92Z" style="fill:#263238"></path><path d="M104.76,161c.18.09.37.27.56.25s.37-.25.49-.48c0,0,0,0,0,0,.06.4,0,.82-.39,1s-.63-.2-.77-.58C104.65,161.09,104.69,161,104.76,161Z" style="fill:#263238"></path><path d="M100.79,167.25c.16.15.32.35.56.36a1.67,1.67,0,0,0,.68-.2s0,0,0,0a.87.87,0,0,1-.8.38.67.67,0,0,1-.53-.54A0,0,0,0,1,100.79,167.25Z" style="fill:#263238"></path><path d="M103.23,164.66a13.94,13.94,0,0,1,.27,1.4s-.1.07-.25.1h0a2.16,2.16,0,0,1-2.16-.59s0-.09.06-.07a3.22,3.22,0,0,0,2,.36c0-.13-.45-1.6-.38-1.61a4,4,0,0,1,1,.12c-.42-2-1.16-3.87-1.55-5.85,0-.07.09-.1.11,0a32.35,32.35,0,0,1,1.95,6.23C104.38,165,103.42,164.72,103.23,164.66Z" style="fill:#263238"></path><path d="M90.89,164a3.82,3.82,0,0,0,2.25-3c7.85-1.83,9.44-7.27,9.44-7.27,2.37,3.81,3.87,4.23,4.22,4.81a12.82,12.82,0,0,0-1.84-6.19,7.65,7.65,0,0,0-9-2.77,9,9,0,0,0-4,3.32,5.13,5.13,0,0,0-3.19,3.15C87.8,160,90.89,164,90.89,164Z" style="fill:#263238"></path><path d="M102.64,153.4a6.46,6.46,0,0,1-1,3,8.26,8.26,0,0,1-2.23,2.37l-.69.44c-.23.13-.48.24-.73.37a9.85,9.85,0,0,1-1.51.59c-.52.16-1,.26-1.57.39s-1.07.14-1.6.19c.52-.13,1-.23,1.57-.35s1-.28,1.52-.46a12.1,12.1,0,0,0,2.82-1.44,8.52,8.52,0,0,0,2.21-2.23A7.7,7.7,0,0,0,102.64,153.4Z" style="fill:#263238"></path><path d="M92.18,164.4s-2.12-2.91-3.45-2.15.32,5,1.9,5.57a1.61,1.61,0,0,0,2.13-.9Z" style="fill:#ad6359"></path><path d="M89.23,163.46s0,0,0,0A4.05,4.05,0,0,1,91.37,166a.89.89,0,0,0-1.33-.22s0,.07,0,.06a1,1,0,0,1,1.09.32,4.86,4.86,0,0,1,.54.87c0,.1.23,0,.19-.07v0C91.88,165.52,90.75,163.57,89.23,163.46Z" style="fill:#263238"></path><path d="M111.74,324.46a17.19,17.19,0,0,1-7.95,8.73A16.91,16.91,0,0,1,98.53,335l-.29,0a16.8,16.8,0,0,1-2.47.18c-.35,0-.7,0-1,0l-.58-.05a17,17,0,0,1-6.38-1.89,17.25,17.25,0,0,1-9.11-13.09c1-2.09,3.65-1.8,4.62-4.12.06-.16.13-.35.21-.59A43.82,43.82,0,0,1,86,308.59l.05-.09a9.71,9.71,0,0,1,4.38-4.72,8.73,8.73,0,0,1,3.53-.69h0a11.4,11.4,0,0,1,1.35.08,12.29,12.29,0,0,1,2.33.49c.79.08,4.17-.43,6.54,2.59a12.11,12.11,0,0,1,1.67,3.7h0a62.77,62.77,0,0,1,1.52,6.8v0c.21,1.1.37,2,.5,2.65h0c0,.17.07.32.1.44.52,1.93,3.07,2.14,3.74,4.37A1.94,1.94,0,0,1,111.74,324.46Z" style="fill:#263238"></path><path d="M112.17,323.28a4.69,4.69,0,0,1-.2.6,3,3,0,0,0-.37-.76,8.68,8.68,0,0,0-1.85-1.83l-1-.84a2.75,2.75,0,0,1-.86-1,3.07,3.07,0,0,0,.94.89l1.1.75a8.71,8.71,0,0,1,2,1.81A3.11,3.11,0,0,1,112.17,323.28Z" style="fill:#263238"></path><path d="M86,308.5a22.21,22.21,0,0,0-.79,2.25L84.47,313a18.63,18.63,0,0,1-.91,2.23c0,.05,0,.09-.07.14a4.62,4.62,0,0,1-.58.93,1.69,1.69,0,0,1-.51.45l-.54.29a22.24,22.24,0,0,0-2.14,1,4.06,4.06,0,0,0-1.16,1q0-.31,0-.63a5.53,5.53,0,0,1,1-.74,22.89,22.89,0,0,1,2.16-1.08c.17-.09.35-.17.51-.27a.7.7,0,0,0,.21-.14.62.62,0,0,0,.18-.18,5,5,0,0,0,.61-1c.36-.69.65-1.43,1-2.16a40.64,40.64,0,0,1,1.85-4.3Z" style="fill:#263238"></path><path d="M103.79,333.19A16.91,16.91,0,0,1,98.53,335l-.29,0a16.8,16.8,0,0,1-2.47.18c-.35,0-.7,0-1,0l-.58-.05a17,17,0,0,1-6.38-1.89,27.68,27.68,0,0,1,1.88-3.06v0l.23-.31h0a10.14,10.14,0,0,1,3.36-3c2.27-1.09,4.53-.46,6.58,1.07a6.39,6.39,0,0,1,.63.74C101.19,329.54,102.42,331.22,103.79,333.19Z" style="fill:#92E3A9"></path><path d="M88.23,332.7A.29.29,0,0,0,88,333a.3.3,0,0,0,.59-.06A.3.3,0,0,0,88.23,332.7Zm3.92-.42a.31.31,0,0,0-.26.33.3.3,0,0,0,.33.26.3.3,0,0,0,.26-.32A.3.3,0,0,0,92.15,332.28Zm3.92-.41a.3.3,0,0,0,.06.59.3.3,0,1,0-.06-.59Zm3.92-.41a.29.29,0,1,0,.06.58.28.28,0,0,0,.26-.32A.29.29,0,0,0,100,331.46Zm-5.59,3.38a.3.3,0,0,0-.25.25l.58.05v0A.3.3,0,0,0,94.4,334.84Zm3.92-.41a.3.3,0,0,0-.26.32.3.3,0,0,0,.18.24l.29,0a.29.29,0,0,0,.12-.26A.3.3,0,0,0,98.32,334.43Zm-2.82-8a.29.29,0,0,0,.06.58.29.29,0,1,0-.06-.58Zm-5.59,3.38h0l-.23.31v0a.29.29,0,0,0,.32.24.29.29,0,0,0,.27-.32A.31.31,0,0,0,89.91,329.8Zm4-.41h0a.29.29,0,0,0-.26.32.29.29,0,0,0,.58,0v0A.29.29,0,0,0,93.88,329.39Zm3.87-.41a.29.29,0,0,0-.26.32.29.29,0,1,0,.58-.06A.28.28,0,0,0,97.75,329Z" style="fill:#fff"></path><path d="M93.56,329c.24.59,3.82,4.13,6.62,3.56.91-.19.1-5.21.1-5.21l0-.39.35-5.37-6.72-3-1-.38s0,1.48,0,3.32v.56c0,.27,0,.55,0,.83s0,.42,0,.65l0,.66A34.39,34.39,0,0,0,93.56,329Z" style="fill:#ad6359"></path><path d="M93,321.54a10.78,10.78,0,0,0,7.31,5.39l.35-5.37-6.72-3-1-.38S93,319.7,93,321.54Z" style="fill:#263238"></path><path d="M107.26,313.47c1,9.41-4.52,11.07-6.54,11.28-1.85.2-8.14.62-10.11-8.63s2.09-12.69,6.28-13.36S106.26,304.06,107.26,313.47Z" style="fill:#ad6359"></path><path d="M104.79,311.45a4.78,4.78,0,0,1-.65-.07,1,1,0,0,1-.65-.19.33.33,0,0,1,0-.41.83.83,0,0,1,.79-.28,1.2,1.2,0,0,1,.81.35A.36.36,0,0,1,104.79,311.45Z" style="fill:#263238"></path><path d="M98.6,312.18c.21-.05.41-.13.62-.2a1.06,1.06,0,0,0,.59-.33.33.33,0,0,0,0-.41.82.82,0,0,0-.84-.1,1.18,1.18,0,0,0-.72.51A.36.36,0,0,0,98.6,312.18Z" style="fill:#263238"></path><path d="M100.1,314.42s0,0,0,.06c.11.64.12,1.38-.43,1.67,0,0,0,0,0,0C100.33,316,100.3,315,100.1,314.42Z" style="fill:#263238"></path><path d="M99.45,313.83c-1,.05-.85,2.12.11,2.07S100.31,313.78,99.45,313.83Z" style="fill:#263238"></path><path d="M99.05,314c-.17.14-.33.36-.55.4s-.46-.15-.64-.34c0,0,0,0,0,0,0,.4.22.79.65.81s.64-.36.7-.76C99.19,314,99.12,313.92,99.05,314Z" style="fill:#263238"></path><path d="M103.8,313.93s0,0,0,.05c0,.64.18,1.38.78,1.54,0,0,0,0,0,0C103.91,315.52,103.73,314.54,103.8,313.93Z" style="fill:#263238"></path><path d="M104.32,313.21c1-.17,1.28,1.9.33,2.05S103.46,313.35,104.32,313.21Z" style="fill:#263238"></path><path d="M104.76,313.29c.18.09.37.27.56.26s.37-.26.49-.49c0,0,0,0,0,0,.06.39,0,.82-.39.94s-.63-.19-.77-.58C104.65,313.37,104.69,313.26,104.76,313.29Z" style="fill:#263238"></path><path d="M100.79,319.54c.16.14.32.34.56.35a1.65,1.65,0,0,0,.68-.19,0,0,0,0,1,0,0,.86.86,0,0,1-.8.39.7.7,0,0,1-.53-.55S100.76,319.52,100.79,319.54Z" style="fill:#263238"></path><path d="M103.23,317a13.56,13.56,0,0,1,.27,1.39s-.1.08-.25.1h0a2.14,2.14,0,0,1-2.16-.58,0,0,0,0,1,.06-.07,3.28,3.28,0,0,0,2,.36c0-.13-.45-1.61-.38-1.62a3.63,3.63,0,0,1,1,.13c-.42-2-1.16-3.88-1.55-5.85,0-.07.09-.11.11,0a32.13,32.13,0,0,1,1.95,6.23C104.38,317.25,103.42,317,103.23,317Z" style="fill:#263238"></path><path d="M90.89,316.31a3.81,3.81,0,0,0,2.25-3c7.85-1.84,9.44-7.27,9.44-7.27,2.37,3.81,3.87,4.23,4.22,4.8a12.77,12.77,0,0,0-1.84-6.18,7.67,7.67,0,0,0-9-2.78,9,9,0,0,0-4,3.33,5.13,5.13,0,0,0-3.19,3.15C87.8,312.24,90.89,316.31,90.89,316.31Z" style="fill:#263238"></path><path d="M102.64,305.68a6.5,6.5,0,0,1-1,3.06,8.22,8.22,0,0,1-2.23,2.36l-.69.44c-.23.14-.48.25-.73.37a9.89,9.89,0,0,1-1.51.6c-.52.15-1,.26-1.57.39l-1.6.18,1.57-.34c.51-.16,1-.29,1.52-.47a11.73,11.73,0,0,0,2.82-1.44,8.37,8.37,0,0,0,2.21-2.23A7.63,7.63,0,0,0,102.64,305.68Z" style="fill:#263238"></path><path d="M92.18,316.69s-2.12-2.92-3.45-2.15.32,5,1.9,5.56a1.6,1.6,0,0,0,2.13-.9Z" style="fill:#ad6359"></path><path d="M89.23,315.74s0,0,0,0a4.08,4.08,0,0,1,2.14,2.49.89.89,0,0,0-1.33-.21s0,.06,0,.06a1,1,0,0,1,1.09.32,4.78,4.78,0,0,1,.54.86c0,.1.23,0,.19-.07v0C91.88,317.8,90.75,315.85,89.23,315.74Z" style="fill:#263238"></path></g></svg>