<svg xmlns="http://www.w3.org/2000/svg" viewBox="0 0 500 500"><g id="freepik--Device--inject-2"><path d="M417.66,464.58l-142-.08a30.94,30.94,0,0,1-30.92-30.94l.07-356a31,31,0,0,1,31-30.93l142,.09a30.94,30.94,0,0,1,30.92,30.94l-.07,356A30.92,30.92,0,0,1,417.66,464.58Z" style="fill:#455a64"></path><path d="M417.61,59.27l-27.53,0a6.85,6.85,0,0,0-6.69,7v5a6.85,6.85,0,0,1-6.69,7l-53.67,0a6.85,6.85,0,0,1-6.68-7v-5a6.85,6.85,0,0,0-6.69-7H275.88A21.66,21.66,0,0,0,254.2,80.85l-.07,347.52A21.67,21.67,0,0,0,275.79,450l141.73.08a21.67,21.67,0,0,0,21.68-21.66l.06-347.52A21.66,21.66,0,0,0,417.61,59.27Z" style="fill:#fff"></path><path d="M439.25,132.31V80.54a21.66,21.66,0,0,0-21.64-21.27l-27.53,0a6.84,6.84,0,0,0-6.69,7v5a6.85,6.85,0,0,1-6.69,7l-53.67,0a6.85,6.85,0,0,1-6.68-7v-5a6.85,6.85,0,0,0-6.69-7H275.88A21.66,21.66,0,0,0,254.2,80.85v51.62H439.25Z" style="fill:#ebebeb"></path><ellipse cx="291.94" cy="180.15" rx="22.43" ry="22.38" style="fill:#e0e0e0"></ellipse><path d="M281.46,185.75l5.88-.5,14.34,2.42,1.69,10.79-.24,1.26a22.56,22.56,0,0,1-21.26.49l-.41-14.46" style="fill:#455a64"></path><path d="M298.61,187.5a7.66,7.66,0,0,1,7.44,3.27,42.81,42.81,0,0,1,2.67,4.23c-2.34,2.54-4.24,4.47-7.48,5.6Z" style="fill:#455a64"></path><path d="M281.46,185.75s-3.88.48-5.38,3.79-1.85,4.34-1.85,4.34c2,2.42,4.56,5.28,7.69,6.35,0,0,.71-8.34.8-10.69C282.83,187,282.93,185.68,281.46,185.75Z" style="fill:#455a64"></path><path d="M285,164.55a10.61,10.61,0,0,1,8.22-4.08,11.46,11.46,0,0,1,4,.72,5.85,5.85,0,0,1,3.36,2.22,9.74,9.74,0,0,1,1.94,4.5,27.75,27.75,0,0,1,.24,5.07,9.3,9.3,0,0,1-1.59,4.77l-4.31.74a26.84,26.84,0,0,1-7.11-.38,9.13,9.13,0,0,1-5.82-3.82C282.2,171.48,282.92,167.11,285,164.55Z" style="fill:#263238"></path><path d="M280.84,177a3.23,3.23,0,0,1,1.46-2.42,2.32,2.32,0,0,1,2.72.24l.68.8a2.78,2.78,0,0,1,1.6,2.8,3,3,0,0,1-2.12,2.49,3.37,3.37,0,0,1-3.21-.77A3.78,3.78,0,0,1,280.84,177Z" style="fill:#263238"></path><path d="M281.69,179.94a1.47,1.47,0,0,1-.23-.85,3.94,3.94,0,0,1,1-1.94,5.8,5.8,0,0,1,1.73-1.38c.5-.27.85-.37.84-.4a2.22,2.22,0,0,0-.91.27,5,5,0,0,0-1.82,1.38,4.68,4.68,0,0,0-.7,1,2.45,2.45,0,0,0-.28,1,1.23,1.23,0,0,0,.19.68C281.6,179.9,281.69,180,281.69,179.94Z" style="fill:#455a64"></path><path d="M296.82,186.73s0-4,0-4,3.51-.39,4.49-4.89a48.22,48.22,0,0,0,.54-9c0-2.73-2.35-6.45-5.73-6.46l-1.5-.18-5.75,2.28a1.61,1.61,0,0,0-1.52,1.54l-.17,19.21,2.63,3.69a3.88,3.88,0,0,0,7-2.23Z" style="fill:#ffbe9d"></path><path d="M294.53,176.8a.92.92,0,0,1,.33-.59,1,1,0,0,1,1.19-.07,1.33,1.33,0,0,1,.5,1.23h0a1.22,1.22,0,0,1-.86.5h-.16a1,1,0,0,1-.72-.28A1,1,0,0,1,294.53,176.8Z" style="fill:#eb996e"></path><path d="M299.76,172a.58.58,0,0,1-.59.56.57.57,0,0,1-.58-.56.59.59,0,0,1,.6-.56A.56.56,0,0,1,299.76,172Z" style="fill:#263238"></path><path d="M300.72,170.56c-.08.07-.51-.28-1.13-.31s-1.11.26-1.17.18.05-.17.26-.31a1.65,1.65,0,0,1,.94-.23,1.49,1.49,0,0,1,.89.34C300.69,170.39,300.75,170.53,300.72,170.56Z" style="fill:#263238"></path><path d="M296.77,175.3a4.54,4.54,0,0,1,1-.12c.16,0,.32,0,.35-.14a.82.82,0,0,0-.08-.48l-.41-1.24a21.29,21.29,0,0,1-.89-3.25,21.06,21.06,0,0,1,1.15,3.17c.14.43.26.85.39,1.25a1,1,0,0,1,.05.63.47.47,0,0,1-.28.22,1.32,1.32,0,0,1-.27,0A3.74,3.74,0,0,1,296.77,175.3Z" style="fill:#263238"></path><path d="M296.8,182.74a11.57,11.57,0,0,1-6-2s1.45,3.23,6,3.06Z" style="fill:#eb996e"></path><path d="M294.9,175.64c.11,0,.07.68.63,1.19s1.28.48,1.28.57-.17.13-.47.12a1.74,1.74,0,0,1-1.08-.44,1.5,1.5,0,0,1-.48-1C294.77,175.79,294.86,175.63,294.9,175.64Z" style="fill:#263238"></path><path d="M300.59,168.2c-.11.15-.59,0-1.15,0s-1,.14-1.15,0,0-.22.22-.36a1.76,1.76,0,0,1,.92-.27,1.69,1.69,0,0,1,.93.25C300.57,168,300.64,168.13,300.59,168.2Z" style="fill:#263238"></path><path d="M292.88,172a.59.59,0,0,0,.56.6.56.56,0,0,0,.61-.52.59.59,0,0,0-.56-.59A.55.55,0,0,0,292.88,172Z" style="fill:#263238"></path><path d="M292.12,170.34c.07.08.52-.24,1.15-.23s1.08.33,1.15.26,0-.17-.24-.32a1.55,1.55,0,0,0-.92-.3,1.51,1.51,0,0,0-.91.27C292.15,170.17,292.08,170.3,292.12,170.34Z" style="fill:#263238"></path><path d="M291.76,169c.12.15.61,0,1.19,0s1.07.12,1.19,0,0-.22-.24-.36a1.9,1.9,0,0,0-1.92,0C291.77,168.78,291.7,168.92,291.76,169Z" style="fill:#263238"></path><path d="M288.11,173.69c0-.34-.32-1.16-.66-1.23-.88-.19-2.49-.2-2.63,2.06-.19,3.09,3,2.64,3,2.55S288.05,174.85,288.11,173.69Z" style="fill:#ffbe9d"></path><path d="M287,175.89s-.05,0-.15.07a.51.51,0,0,1-.4,0,1.34,1.34,0,0,1-.55-1.24,1.86,1.86,0,0,1,.2-.76.64.64,0,0,1,.43-.39.27.27,0,0,1,.31.17.53.53,0,0,1,0,.15s.07,0,.05-.17a.34.34,0,0,0-.11-.2.36.36,0,0,0-.29-.1.75.75,0,0,0-.59.44,1.83,1.83,0,0,0-.24.85,1.4,1.4,0,0,0,.7,1.39.61.61,0,0,0,.5-.05C287,176,287,175.9,287,175.89Z" style="fill:#eb996e"></path><path d="M287.33,172.47l.78.81c3.4-3.24,10.05-11.37,9.68-10.89a10,10,0,0,0-4.86-.52c-2.53.43-7.32,1.69-7.25,4.66A15.58,15.58,0,0,0,287.33,172.47Z" style="fill:#263238"></path><path d="M282.83,171.79s0-.07,0-.18a3.94,3.94,0,0,1,.21-.49,4.46,4.46,0,0,1,1.3-1.45,8.58,8.58,0,0,1,2.61-1.26c1-.33,2.2-.59,3.35-1.08a15.64,15.64,0,0,0,5.22-3.6,17.08,17.08,0,0,0,1.25-1.48l.31-.43a.71.71,0,0,1,.12-.14l-.09.16c-.07.1-.16.26-.29.45a14.82,14.82,0,0,1-1.22,1.52,15.2,15.2,0,0,1-2.16,1.92,14.83,14.83,0,0,1-3.08,1.74,31.67,31.67,0,0,1-3.37,1.08,8.6,8.6,0,0,0-2.58,1.21,4.54,4.54,0,0,0-1.31,1.39A4.69,4.69,0,0,0,282.83,171.79Z" style="fill:#455a64"></path><path d="M283.73,172.27a1.63,1.63,0,0,1,.12-.67,3.16,3.16,0,0,1,1.16-1.46,7,7,0,0,1,2.59-1,14.85,14.85,0,0,0,3.21-1,13.47,13.47,0,0,0,2.86-1.76,14.52,14.52,0,0,0,2-1.93,13.52,13.52,0,0,0,1.09-1.5c.11-.17.2-.32.26-.43a.84.84,0,0,1,.11-.15.91.91,0,0,1-.08.16l-.24.45a10.55,10.55,0,0,1-1.06,1.54,12.83,12.83,0,0,1-2,2,13.65,13.65,0,0,1-2.89,1.8,14.72,14.72,0,0,1-3.25,1,7.31,7.31,0,0,0-2.55,1,3.14,3.14,0,0,0-1.17,1.39A3.32,3.32,0,0,0,283.73,172.27Z" style="fill:#455a64"></path><path d="M281.92,200.21a39.88,39.88,0,0,1,0-5.92,43.86,43.86,0,0,1,0,5.92Z" style="fill:#263238"></path><path d="M303.14,199.79a6.39,6.39,0,0,1,0-1,11.62,11.62,0,0,0-.09-2.5,12.1,12.1,0,0,0-.72-2.41,5.61,5.61,0,0,1-.36-1,5,5,0,0,1,.49.93,9.61,9.61,0,0,1,.79,2.43,9.14,9.14,0,0,1,0,2.55A4,4,0,0,1,303.14,199.79Z" style="fill:#263238"></path><path d="M411.08,208.57H334.63a6.88,6.88,0,0,1-6.87-6.87V169.6l-8.43-7.48h91.75A6.87,6.87,0,0,1,418,169V201.7A6.88,6.88,0,0,1,411.08,208.57Z" style="fill:#ebebeb"></path><path d="M405.84,213.77a65,65,0,0,1-8.16.26,64.92,64.92,0,0,1-8.15-.26,64.92,64.92,0,0,1,8.15-.26A65,65,0,0,1,405.84,213.77Z" style="fill:#e0e0e0"></path><path d="M409.21,214.41a.25.25,0,0,1-.18-.08l-1.58-1.65a.25.25,0,0,1,0-.35.24.24,0,0,1,.35,0l1.4,1.46,3.07-3.12a.24.24,0,0,1,.35,0,.25.25,0,0,1,0,.35l-3.25,3.31A.29.29,0,0,1,409.21,214.41Z" style="fill:#92E3A9"></path><path d="M411.46,214.36h-.29a.25.25,0,0,1-.25-.25.28.28,0,0,1,.26-.25h.18l3.17-3.23a.25.25,0,0,1,.36,0,.25.25,0,0,1,0,.35l-3.25,3.3A.23.23,0,0,1,411.46,214.36Z" style="fill:#92E3A9"></path><path d="M405.84,339.44a65,65,0,0,1-8.16.26,64.92,64.92,0,0,1-8.15-.26,64.92,64.92,0,0,1,8.15-.26A65,65,0,0,1,405.84,339.44Z" style="fill:#e0e0e0"></path><path d="M409.21,340.08h0A.25.25,0,0,1,409,340l-1.58-1.65a.25.25,0,1,1,.36-.34l1.4,1.46,3.07-3.12a.24.24,0,0,1,.35,0,.25.25,0,0,1,0,.35L409.39,340A.29.29,0,0,1,409.21,340.08Z" style="fill:#92E3A9"></path><path d="M411.46,340h-.29a.26.26,0,0,1-.25-.26.24.24,0,0,1,.26-.24h.18l3.17-3.23a.25.25,0,0,1,.36,0,.25.25,0,0,1,0,.35l-3.25,3.3A.23.23,0,0,1,411.46,340Z" style="fill:#92E3A9"></path><path d="M410.1,171.31c0,.14-16.69.26-37.28.26s-37.27-.12-37.27-.26,16.68-.26,37.27-.26S410.1,171.16,410.1,171.31Z" style="fill:#fff"></path><path d="M410.1,176.78c0,.15-16.69.26-37.28.26s-37.27-.11-37.27-.26,16.68-.26,37.27-.26S410.1,176.64,410.1,176.78Z" style="fill:#fff"></path><path d="M410.1,182.26c0,.14-16.69.26-37.28.26s-37.27-.12-37.27-.26,16.68-.26,37.27-.26S410.1,182.12,410.1,182.26Z" style="fill:#fff"></path><ellipse cx="291.94" cy="319.72" rx="22.43" ry="22.38" style="fill:#e0e0e0"></ellipse><path d="M281.46,325.32l5.88-.5,14.34,2.42L303.37,338l-.24,1.25a22.53,22.53,0,0,1-21.26.49l-.41-14.45" style="fill:#455a64"></path><path d="M298.61,327.06a7.68,7.68,0,0,1,7.44,3.27,42.08,42.08,0,0,1,2.67,4.24c-2.34,2.54-4.24,4.47-7.48,5.59Z" style="fill:#455a64"></path><path d="M281.46,325.32s-3.88.47-5.38,3.78-1.85,4.35-1.85,4.35c2,2.41,4.56,5.27,7.69,6.34,0,0,.71-8.33.8-10.69C282.83,326.52,282.93,325.24,281.46,325.32Z" style="fill:#455a64"></path><path d="M285,304.12a10.58,10.58,0,0,1,8.22-4.08,11.25,11.25,0,0,1,4,.71,5.94,5.94,0,0,1,3.36,2.22,9.79,9.79,0,0,1,1.94,4.5,27.9,27.9,0,0,1,.24,5.08,9.23,9.23,0,0,1-1.59,4.76l-4.31.75a27.27,27.27,0,0,1-7.11-.38,9.13,9.13,0,0,1-5.82-3.82C282.2,311,282.92,306.67,285,304.12Z" style="fill:#263238"></path><path d="M280.84,316.61a3.21,3.21,0,0,1,1.46-2.42,2.31,2.31,0,0,1,2.72.23l.68.81a2.77,2.77,0,0,1,1.6,2.8,3.06,3.06,0,0,1-2.12,2.49,3.38,3.38,0,0,1-3.21-.78A3.76,3.76,0,0,1,280.84,316.61Z" style="fill:#263238"></path><path d="M281.69,319.51a1.53,1.53,0,0,1-.23-.86,3.91,3.91,0,0,1,1-1.93,5.64,5.64,0,0,1,1.73-1.38c.5-.27.85-.37.84-.41a2.43,2.43,0,0,0-.91.27,5.21,5.21,0,0,0-1.82,1.38,5,5,0,0,0-.7,1.06,2.41,2.41,0,0,0-.28,1,1.25,1.25,0,0,0,.19.68C281.6,319.47,281.69,319.52,281.69,319.51Z" style="fill:#455a64"></path><path d="M296.84,326.66l0-4s3.51-.39,4.49-4.88a48.33,48.33,0,0,0,.54-9c0-2.73-2.35-6.45-5.73-6.46l-1.5-.17-5.75,2.28a1.6,1.6,0,0,0-1.52,1.54l-.17,19.2,2.63,3.69a3.88,3.88,0,0,0,7-2.23Z" style="fill:#ffbe9d"></path><path d="M294.53,316.37a.92.92,0,0,1,.33-.59,1,1,0,0,1,1.19-.07,1.33,1.33,0,0,1,.5,1.23h0a1.21,1.21,0,0,1-.86.49h-.16a1.1,1.1,0,0,1-.72-.29A.93.93,0,0,1,294.53,316.37Z" style="fill:#eb996e"></path><path d="M299.76,312a.59.59,0,0,1-1.17,0,.59.59,0,0,1,.6-.56A.56.56,0,0,1,299.76,312Z" style="fill:#263238"></path><path d="M300.72,310.51c-.08.07-.51-.28-1.13-.31s-1.11.25-1.17.17.05-.17.26-.3a1.51,1.51,0,0,1,.94-.23,1.49,1.49,0,0,1,.89.34C300.69,310.34,300.75,310.48,300.72,310.51Z" style="fill:#263238"></path><path d="M296.77,315.25a4.85,4.85,0,0,1,1-.13c.16,0,.32,0,.35-.14a.83.83,0,0,0-.08-.48c-.13-.39-.27-.8-.41-1.24a21.7,21.7,0,0,1-.89-3.24,20.66,20.66,0,0,1,1.15,3.16c.14.44.26.85.39,1.25a1,1,0,0,1,.05.63.41.41,0,0,1-.28.22.89.89,0,0,1-.27,0A3.74,3.74,0,0,1,296.77,315.25Z" style="fill:#263238"></path><path d="M296.8,322.68a11.61,11.61,0,0,1-6-1.95s1.45,3.23,6,3.06Z" style="fill:#eb996e"></path><path d="M294.9,315.58c.11,0,.07.68.63,1.2s1.28.48,1.28.57-.17.12-.47.12a1.7,1.7,0,0,1-1.08-.45,1.46,1.46,0,0,1-.48-1C294.77,315.74,294.86,315.58,294.9,315.58Z" style="fill:#263238"></path><path d="M300.59,308.15c-.11.15-.59,0-1.15,0s-1,.14-1.15,0,0-.22.22-.36a1.67,1.67,0,0,1,.92-.27,1.61,1.61,0,0,1,.93.25C300.57,307.93,300.64,308.08,300.59,308.15Z" style="fill:#263238"></path><path d="M292.88,311.92a.58.58,0,0,0,.56.59.55.55,0,0,0,.61-.51.59.59,0,0,0-.56-.6A.56.56,0,0,0,292.88,311.92Z" style="fill:#263238"></path><path d="M292.12,310.28c.07.08.52-.24,1.15-.22s1.08.33,1.15.25,0-.17-.24-.32a1.62,1.62,0,0,0-.92-.3,1.58,1.58,0,0,0-.91.28C292.15,310.11,292.08,310.25,292.12,310.28Z" style="fill:#263238"></path><path d="M291.76,308.94c.12.14.61,0,1.19,0s1.07.11,1.19,0,0-.21-.24-.35a1.9,1.9,0,0,0-1.92,0C291.77,308.72,291.7,308.87,291.76,308.94Z" style="fill:#263238"></path><path d="M288.11,313.25c0-.34-.32-1.15-.66-1.22-.88-.19-2.49-.21-2.63,2.05-.19,3.09,3,2.65,3,2.56S288.05,314.42,288.11,313.25Z" style="fill:#ffbe9d"></path><path d="M287,315.46s-.05,0-.15.07a.56.56,0,0,1-.4,0,1.33,1.33,0,0,1-.55-1.23,1.82,1.82,0,0,1,.2-.76.64.64,0,0,1,.43-.39.28.28,0,0,1,.31.16.51.51,0,0,1,0,.16s.07-.05.05-.18a.37.37,0,0,0-.11-.2.39.39,0,0,0-.29-.09.73.73,0,0,0-.59.44,1.8,1.8,0,0,0-.24.85,1.39,1.39,0,0,0,.7,1.38.57.57,0,0,0,.5,0C287,315.53,287,315.46,287,315.46Z" style="fill:#eb996e"></path><path d="M287.33,312l.78.82c3.4-3.25,10.05-11.38,9.68-10.89a9.9,9.9,0,0,0-4.86-.53c-2.53.43-7.32,1.69-7.25,4.67A15.57,15.57,0,0,0,287.33,312Z" style="fill:#263238"></path><path d="M282.83,311.35s0-.06,0-.18a4.73,4.73,0,0,1,.21-.48,4.57,4.57,0,0,1,1.3-1.46A8.57,8.57,0,0,1,287,308c1-.34,2.2-.6,3.35-1.09a15.13,15.13,0,0,0,3.06-1.71,15.73,15.73,0,0,0,2.16-1.88c.56-.6,1-1.12,1.25-1.48.12-.18.23-.32.31-.43s.11-.15.12-.14l-.09.16-.29.44a12.92,12.92,0,0,1-1.22,1.52,15.21,15.21,0,0,1-2.16,1.93A14.83,14.83,0,0,1,290.4,307c-1.16.49-2.34.75-3.37,1.08a8.6,8.6,0,0,0-2.58,1.2,4.56,4.56,0,0,0-1.31,1.4A6,6,0,0,0,282.83,311.35Z" style="fill:#455a64"></path><path d="M283.73,311.84a1.68,1.68,0,0,1,.12-.68,3.09,3.09,0,0,1,1.16-1.45,7,7,0,0,1,2.59-1,15.42,15.42,0,0,0,3.21-1,13.47,13.47,0,0,0,2.86-1.76,13.81,13.81,0,0,0,3.06-3.43c.11-.18.2-.32.26-.44a1,1,0,0,1,.11-.14.91.91,0,0,1-.08.16l-.24.45a10.55,10.55,0,0,1-1.06,1.54,12.83,12.83,0,0,1-2,2,13.23,13.23,0,0,1-2.89,1.79,15.33,15.33,0,0,1-3.25,1,6.93,6.93,0,0,0-2.55,1,3,3,0,0,0-1.17,1.39A3.12,3.12,0,0,0,283.73,311.84Z" style="fill:#455a64"></path><path d="M281.92,339.77a39.75,39.75,0,0,1,0-5.91,43.71,43.71,0,0,1,0,5.91Z" style="fill:#263238"></path><path d="M303.14,339.36a6.39,6.39,0,0,1,0-1.05,11.71,11.71,0,0,0-.09-2.51,12.19,12.19,0,0,0-.72-2.4,6,6,0,0,1-.36-1,5,5,0,0,1,.49.93,9.48,9.48,0,0,1,.79,2.43,9.14,9.14,0,0,1,0,2.55A4.12,4.12,0,0,1,303.14,339.36Z" style="fill:#263238"></path><path d="M411.08,332.88H334.63a6.88,6.88,0,0,1-6.87-6.88V309.16l-8.43-7.48h91.75a6.88,6.88,0,0,1,6.87,6.87V326A6.88,6.88,0,0,1,411.08,332.88Z" style="fill:#ebebeb"></path><path d="M410.1,310.87c0,.15-16.69.26-37.28.26s-37.27-.11-37.27-.26,16.68-.26,37.27-.26S410.1,310.73,410.1,310.87Z" style="fill:#fff"></path><path d="M410.1,316.35c0,.14-16.69.26-37.28.26s-37.27-.12-37.27-.26,16.68-.26,37.27-.26S410.1,316.21,410.1,316.35Z" style="fill:#fff"></path><path d="M410.1,321.83c0,.14-16.69.26-37.28.26s-37.27-.12-37.27-.26,16.68-.26,37.27-.26S410.1,321.68,410.1,321.83Z" style="fill:#fff"></path><path d="M410.1,187.74c0,.14-16.69.26-37.28.26s-37.27-.12-37.27-.26,16.68-.26,37.27-.26S410.1,187.59,410.1,187.74Z" style="fill:#fff"></path><path d="M410.1,193.21c0,.15-16.69.26-37.28.26s-37.27-.11-37.27-.26,16.68-.26,37.27-.26S410.1,193.07,410.1,193.21Z" style="fill:#fff"></path><path d="M410.1,199.79c0,.15-16.69.26-37.28.26s-37.27-.11-37.27-.26,16.68-.26,37.27-.26S410.1,199.65,410.1,199.79Z" style="fill:#fff"></path><path d="M336,104.63a4,4,0,0,1,6.91-2.46l-1.07,1a2.34,2.34,0,0,0-1.82-.85,2.32,2.32,0,0,0,0,4.64,2.32,2.32,0,0,0,1.82-.86l1.07,1a4,4,0,0,1-6.91-2.45Z" style="fill:#263238"></path><path d="M349.56,105.06v3.19H348v-2.94c0-.9-.42-1.31-1.13-1.31s-1.33.48-1.33,1.5v2.75h-1.62v-7.67h1.62v2.69a2.41,2.41,0,0,1,1.77-.67A2.18,2.18,0,0,1,349.56,105.06Z" style="fill:#263238"></path><path d="M355.94,105.08v3.17h-1.51v-.69a1.82,1.82,0,0,1-1.7.77c-1.3,0-2.07-.72-2.07-1.68s.69-1.67,2.39-1.67h1.28c0-.69-.42-1.09-1.28-1.09a2.71,2.71,0,0,0-1.61.51l-.58-1.12a4.24,4.24,0,0,1,2.4-.68C355,102.6,355.94,103.39,355.94,105.08Zm-1.61,1.41v-.57h-1.11c-.75,0-1,.28-1,.66s.34.67.91.67A1.19,1.19,0,0,0,354.33,106.49Z" style="fill:#263238"></path><path d="M361,108a2.3,2.3,0,0,1-1.32.35,1.83,1.83,0,0,1-2.07-2v-2.29h-.86v-1.24h.86v-1.36h1.61v1.36h1.39v1.24h-1.39v2.27a.65.65,0,0,0,.69.73,1,1,0,0,0,.65-.21Z" style="fill:#263238"></path><path d="M389.53,115.79c0,.14-17,.26-38.07.26s-38.06-.12-38.06-.26,17-.27,38.06-.27S389.53,115.64,389.53,115.79Z" style="fill:#263238"></path><circle cx="423.26" cy="102.86" r="1.77" style="fill:#263238"></circle><path d="M425,108a1.78,1.78,0,1,1-1.77-1.77A1.78,1.78,0,0,1,425,108Z" style="fill:#263238"></path><path d="M425,113.19a1.78,1.78,0,1,1-1.77-1.77A1.77,1.77,0,0,1,425,113.19Z" style="fill:#263238"></path><path d="M279.32,108.86a.47.47,0,0,1-.3-.1l-4.69-3.44a.52.52,0,0,1-.21-.41.49.49,0,0,1,.21-.4l4.69-3.38a.5.5,0,0,1,.7.12.5.5,0,0,1-.11.69l-4.14,3,4.14,3a.51.51,0,0,1,.11.7A.49.49,0,0,1,279.32,108.86Z" style="fill:#263238"></path><ellipse cx="401.71" cy="254.62" rx="22.43" ry="22.38" style="fill:#e0e0e0"></ellipse><path d="M407.85,267.85h-11.8a1.52,1.52,0,0,1-1.52-1.52h0a1.53,1.53,0,0,1,1.52-1.53h11.8a1.53,1.53,0,0,1,1.52,1.53h0A1.52,1.52,0,0,1,407.85,267.85Z" style="fill:#263238"></path><rect x="401.58" y="240.07" width="1.04" height="5.24" style="fill:#263238"></rect><circle cx="386.81" cy="257.98" r="3.04" style="fill:#92E3A9"></circle><circle cx="417.55" cy="257.78" r="3.04" style="fill:#92E3A9"></circle><path d="M402.55,244.21s12.38-.15,14.34,10.58-8.51,10.92-11.52,11.12c-1.36.09-4.28.1-6.86.06-5.71-.1-9.74-1.2-11.11-6.5a10,10,0,0,1-.31-1.9C386.73,251.77,390.65,243.93,402.55,244.21Z" style="fill:#92E3A9"></path><path d="M393.57,260.54l18,.28a3.42,3.42,0,0,0,3.47-3.36h0a3.42,3.42,0,0,0-3.37-3.46l-18-.28a3.41,3.41,0,0,0-3.47,3.36h0A3.41,3.41,0,0,0,393.57,260.54Z" style="fill:#263238"></path><path d="M407.83,257.09a1.09,1.09,0,0,0,1.28.87,1.1,1.1,0,1,0-.42-2.15A1.09,1.09,0,0,0,407.83,257.09Z" style="fill:#fff"></path><path d="M395.26,256.89a1.1,1.1,0,1,0,2.15-.42,1.1,1.1,0,0,0-2.15.42Z" style="fill:#fff"></path><path d="M403.81,240a1.71,1.71,0,1,1-1.71-1.7A1.71,1.71,0,0,1,403.81,240Z" style="fill:#92E3A9"></path><path d="M404.68,256.59s.07.08.11.26a1.8,1.8,0,0,1-.07.76,2.28,2.28,0,0,1-.6,1,2.12,2.12,0,0,1-1.29.61,2.15,2.15,0,0,1-1.38-.36,2.42,2.42,0,0,1-.77-.85,1.82,1.82,0,0,1-.2-.74c0-.18,0-.28.06-.28s.1.38.43.85a2.51,2.51,0,0,0,.71.65,1.89,1.89,0,0,0,1.11.26,1.84,1.84,0,0,0,1-.46,2.18,2.18,0,0,0,.59-.77C404.64,257,404.6,256.59,404.68,256.59Z" style="fill:#fff"></path><path d="M416.87,254.44a1.61,1.61,0,0,1,.09.26,3.12,3.12,0,0,1,.1.32c0,.12.07.26.1.43a9.29,9.29,0,0,1,.16,1.13,9.47,9.47,0,0,1,0,1.4,9.23,9.23,0,0,1-.23,1.38,8,8,0,0,1-.36,1.08,4.27,4.27,0,0,1-.17.41,2.57,2.57,0,0,1-.15.29l-.14.25a.86.86,0,0,1,.11-.26l.13-.31c.05-.12.11-.25.16-.4a8.26,8.26,0,0,0,.33-1.08,10.56,10.56,0,0,0,.23-1.37,10.89,10.89,0,0,0,0-1.39,9.74,9.74,0,0,0-.14-1.12A4,4,0,0,0,417,255c0-.13-.05-.23-.07-.32A.91.91,0,0,1,416.87,254.44Z" style="fill:#263238"></path><path d="M387.54,254.5a1.36,1.36,0,0,0-.1.27c0,.08-.06.19-.1.31s-.07.27-.1.43a8,8,0,0,0-.15,1.13,9.39,9.39,0,0,0,0,1.4,8.82,8.82,0,0,0,.23,1.38,7.73,7.73,0,0,0,.36,1.09c.05.15.12.28.17.4s.11.22.15.3l.14.24a1.19,1.19,0,0,0-.11-.26c0-.08-.08-.18-.13-.3s-.11-.25-.16-.4a8.45,8.45,0,0,1-.33-1.09,10.28,10.28,0,0,1-.23-1.37,10.76,10.76,0,0,1,0-1.38,9.94,9.94,0,0,1,.14-1.13,3.38,3.38,0,0,1,.09-.42c0-.13.05-.24.07-.32S387.54,254.5,387.54,254.5Z" style="fill:#263238"></path><path d="M390.21,273.84s3.68-3.59,11.37-3.59,11.63,3.59,11.63,3.59A22.26,22.26,0,0,1,390.21,273.84Z" style="fill:#92E3A9"></path><path d="M279,277.44h76.44a6.86,6.86,0,0,0,6.87-6.87V248.39l8.43-7.48H279a6.87,6.87,0,0,0-6.87,6.87v22.79A6.86,6.86,0,0,0,279,277.44Z" style="fill:#ebebeb"></path><path d="M352,251.75c0,.15-15.74.26-35.16.26s-35.16-.11-35.16-.26,15.74-.26,35.16-.26S352,251.61,352,251.75Z" style="fill:#fff"></path><path d="M352,257.69c0,.15-15.74.26-35.16.26s-35.16-.11-35.16-.26,15.74-.26,35.16-.26S352,257.55,352,257.69Z" style="fill:#fff"></path><path d="M352,263.63c0,.14-15.74.26-35.16.26s-35.16-.12-35.16-.26,15.74-.26,35.16-.26S352,263.49,352,263.63Z" style="fill:#fff"></path><path d="M352,269.57c0,.14-15.74.26-35.16.26s-35.16-.12-35.16-.26,15.74-.26,35.16-.26S352,269.42,352,269.57Z" style="fill:#fff"></path><ellipse cx="401.71" cy="378.9" rx="22.43" ry="22.38" style="fill:#e0e0e0"></ellipse><path d="M407.85,392.13h-11.8a1.52,1.52,0,0,1-1.52-1.53h0a1.52,1.52,0,0,1,1.52-1.52h11.8a1.52,1.52,0,0,1,1.52,1.52h0A1.52,1.52,0,0,1,407.85,392.13Z" style="fill:#263238"></path><rect x="401.58" y="364.35" width="1.04" height="5.24" style="fill:#263238"></rect><circle cx="386.81" cy="382.26" r="3.04" style="fill:#92E3A9"></circle><circle cx="417.55" cy="382.05" r="3.04" style="fill:#92E3A9"></circle><path d="M402.55,368.49s12.38-.15,14.34,10.57-8.51,10.93-11.52,11.13c-1.36.09-4.28.1-6.86.06-5.71-.1-9.74-1.21-11.11-6.5a10,10,0,0,1-.31-1.9C386.73,376.05,390.65,368.2,402.55,368.49Z" style="fill:#92E3A9"></path><path d="M393.57,384.82l18,.28a3.42,3.42,0,0,0,3.47-3.36h0a3.42,3.42,0,0,0-3.37-3.46l-18-.29a3.42,3.42,0,0,0-3.47,3.36h0A3.42,3.42,0,0,0,393.57,384.82Z" style="fill:#263238"></path><path d="M407.83,381.37A1.1,1.1,0,0,0,410,381a1.1,1.1,0,1,0-2.15.42Z" style="fill:#fff"></path><path d="M395.26,381.17a1.1,1.1,0,1,0,.87-1.29A1.1,1.1,0,0,0,395.26,381.17Z" style="fill:#fff"></path><path d="M403.81,364.24a1.71,1.71,0,1,1-1.71-1.71A1.71,1.71,0,0,1,403.81,364.24Z" style="fill:#92E3A9"></path><path d="M404.68,380.86s.07.09.11.27a1.81,1.81,0,0,1-.07.76,2.34,2.34,0,0,1-.6,1,2.12,2.12,0,0,1-1.29.61,2.15,2.15,0,0,1-1.38-.36,2.42,2.42,0,0,1-.77-.85,1.86,1.86,0,0,1-.2-.74c0-.18,0-.28.06-.28s.1.38.43.84a2.4,2.4,0,0,0,.71.66,2,2,0,0,0,1.11.26,1.84,1.84,0,0,0,1-.46,2.37,2.37,0,0,0,.59-.77C404.64,381.26,404.6,380.87,404.68,380.86Z" style="fill:#fff"></path><path d="M416.87,378.71s0,.1.09.27a2.49,2.49,0,0,1,.1.32c0,.12.07.26.1.42a9.9,9.9,0,0,1,.16,1.13,9.45,9.45,0,0,1,0,1.4,8.82,8.82,0,0,1-.23,1.38,7.73,7.73,0,0,1-.36,1.09,4,4,0,0,1-.17.4,2.09,2.09,0,0,1-.15.3l-.14.24a1.19,1.19,0,0,1,.11-.26c0-.08.08-.18.13-.3s.11-.25.16-.4a8,8,0,0,0,.33-1.09,10.12,10.12,0,0,0,.23-1.36,10.89,10.89,0,0,0,0-1.39,9.46,9.46,0,0,0-.14-1.12,3.57,3.57,0,0,0-.09-.43c0-.13-.05-.23-.07-.32A.93.93,0,0,1,416.87,378.71Z" style="fill:#263238"></path><path d="M387.54,378.78a1.36,1.36,0,0,0-.1.27c0,.08-.06.19-.1.31s-.07.27-.1.43a8,8,0,0,0-.15,1.13,9.39,9.39,0,0,0,0,1.4,9,9,0,0,0,.23,1.38,7.73,7.73,0,0,0,.36,1.09c.05.15.12.28.17.4s.11.22.15.3l.14.24a1,1,0,0,0-.11-.26c0-.08-.08-.18-.13-.3s-.11-.25-.16-.41a8.26,8.26,0,0,1-.33-1.08,10.28,10.28,0,0,1-.23-1.37,10.76,10.76,0,0,1,0-1.38,9.94,9.94,0,0,1,.14-1.13,3.38,3.38,0,0,1,.09-.42c0-.13.05-.24.07-.32S387.54,378.78,387.54,378.78Z" style="fill:#263238"></path><path d="M390.21,398.12s3.68-3.59,11.37-3.59,11.63,3.59,11.63,3.59A22.26,22.26,0,0,1,390.21,398.12Z" style="fill:#92E3A9"></path><path d="M279,401.72h76.44a6.86,6.86,0,0,0,6.87-6.87V372.67l8.43-7.48H279a6.87,6.87,0,0,0-6.87,6.87v22.79A6.86,6.86,0,0,0,279,401.72Z" style="fill:#ebebeb"></path><path d="M279,436.41h76.44a6.87,6.87,0,0,0,6.87-6.88v-7.35l8.43-7.48H279a6.87,6.87,0,0,0-6.87,6.87v8A6.87,6.87,0,0,0,279,436.41Z" style="fill:#ebebeb"></path><path d="M352,376c0,.15-15.74.26-35.16.26s-35.16-.11-35.16-.26,15.74-.26,35.16-.26S352,375.89,352,376Z" style="fill:#fff"></path><path d="M352,382c0,.14-15.74.26-35.16.26s-35.16-.12-35.16-.26,15.74-.26,35.16-.26S352,381.83,352,382Z" style="fill:#fff"></path><path d="M352,387.91c0,.14-15.74.26-35.16.26s-35.16-.12-35.16-.26,15.74-.26,35.16-.26S352,387.76,352,387.91Z" style="fill:#fff"></path><path d="M352,393.85c0,.14-15.74.26-35.16.26s-35.16-.12-35.16-.26,15.74-.26,35.16-.26S352,393.7,352,393.85Z" style="fill:#fff"></path><path d="M352.24,425.87c0,.14-15.58.26-34.79.26s-34.8-.12-34.8-.26,15.58-.26,34.8-.26S352.24,425.72,352.24,425.87Z" style="fill:#fff"></path></g></svg>